<svg width="330" height="338" viewBox="0 0 330 338" fill="none" xmlns="http://www.w3.org/2000/svg">
<path d="M42.7102 46.6091C108.027 -34.609 220.342 6.91489 272.202 46.6091C324.062 86.3033 353.065 206.543 306.93 245.596C260.794 284.649 98.1015 319.648 42.7103 271.887C-12.681 224.126 -15.7716 119.328 42.7102 46.6091Z" fill="url(#paint0_linear)"/>
<g clip-path="url(#clip0)">
<path d="M286.265 326.456V294.844C286.265 294.844 296.205 317.255 286.265 326.456Z" fill="#BFD5F9"/>
<path d="M286.879 326.45L268.089 305.072C268.089 305.072 288.132 311.153 286.879 326.45Z" fill="#C3D8F9"/>
<path d="M68.5362 326.456V294.844C68.5362 294.844 58.5962 317.255 68.5362 326.456Z" fill="#D3E2FA"/>
<path d="M67.9221 326.45L86.7113 305.072C86.7113 305.072 66.6684 311.153 67.9221 326.45Z" fill="#D8E5FA"/>
<path d="M239.293 91.9989H237.931V45.7611C237.931 42.2468 237.373 38.7669 236.288 35.5201C235.202 32.2733 233.612 29.3232 231.607 26.8382C229.602 24.3532 227.222 22.382 224.602 21.0371C221.982 19.6922 219.174 19 216.339 19H137.299C134.464 19 131.656 19.6922 129.036 21.037C126.417 22.3819 124.036 24.3531 122.031 26.8381C120.026 29.3231 118.436 32.2732 117.351 35.52C116.266 38.7668 115.707 42.2467 115.707 45.7611V299.425C115.707 306.522 117.982 313.329 122.031 318.348C126.081 323.366 131.573 326.186 137.299 326.186H216.339C222.065 326.186 227.558 323.366 231.607 318.348C235.656 313.329 237.931 306.522 237.931 299.425V124.912H239.293V91.9989Z" fill="#3F3D56"/>
<path d="M217.21 25.9624H206.893C207.367 27.4041 207.548 28.9682 207.42 30.5171C207.292 32.066 206.858 33.5521 206.158 34.8444C205.457 36.1367 204.511 37.1955 203.402 37.9277C202.293 38.6599 201.056 39.0429 199.8 39.0431H154.519C153.263 39.0429 152.026 38.6599 150.917 37.9277C149.808 37.1955 148.862 36.1367 148.161 34.8444C147.461 33.5521 147.027 32.066 146.899 30.5171C146.771 28.9682 146.952 27.404 147.426 25.9623H137.79C133.513 25.9623 129.412 28.0679 126.388 31.8158C123.364 35.5637 121.665 40.6469 121.665 45.9472V299.239C121.665 301.863 122.082 304.462 122.892 306.887C123.703 309.311 124.891 311.514 126.388 313.37C127.885 315.226 129.663 316.698 131.619 317.702C133.575 318.707 135.672 319.224 137.79 319.224H217.21C219.328 319.224 221.424 318.707 223.381 317.702C225.337 316.698 227.115 315.226 228.612 313.37C230.109 311.514 231.297 309.311 232.108 306.887C232.918 304.462 233.335 301.863 233.335 299.239V299.239V45.9472C233.335 43.3228 232.918 40.724 232.108 38.2993C231.297 35.8747 230.109 33.6715 228.612 31.8158C227.115 29.96 225.337 28.4879 223.381 27.4836C221.424 26.4793 219.328 25.9624 217.21 25.9624Z" fill="white"/>
<path d="M215.221 314.875H139.779C131.111 314.875 124.059 307.073 124.059 297.484V284.894C124.059 277.251 129.675 271.033 136.578 271.033H218.422C225.325 271.033 230.941 277.251 230.941 284.894V297.484C230.941 307.073 223.889 314.875 215.221 314.875Z" fill="#E5E5E5"/>
<path d="M147.71 103.272H130.882C130.58 103.271 130.291 103.123 130.078 102.859C129.865 102.594 129.745 102.236 129.745 101.863V81.006C129.745 80.6324 129.865 80.2742 130.078 80.01C130.291 79.7459 130.58 79.5972 130.882 79.5968H147.71C148.011 79.5972 148.3 79.7459 148.513 80.01C148.726 80.2742 148.846 80.6324 148.847 81.006V101.863C148.846 102.236 148.726 102.594 148.513 102.859C148.3 103.123 148.011 103.271 147.71 103.272V103.272Z" fill="#D3A518"/>
<path d="M173.179 103.272H156.351C156.05 103.271 155.761 103.123 155.548 102.859C155.334 102.594 155.214 102.236 155.214 101.863V81.006C155.214 80.6324 155.334 80.2742 155.548 80.01C155.761 79.7458 156.05 79.5972 156.351 79.5968H173.179C173.481 79.5972 173.77 79.7458 173.983 80.01C174.196 80.2742 174.316 80.6324 174.316 81.006V101.863C174.316 102.236 174.196 102.594 173.983 102.859C173.77 103.123 173.481 103.271 173.179 103.272V103.272Z" fill="#E5E5E5"/>
<path d="M198.649 103.272H181.821C181.519 103.271 181.23 103.123 181.017 102.859C180.804 102.594 180.684 102.236 180.684 101.863V81.006C180.684 80.6324 180.804 80.2742 181.017 80.01C181.23 79.7458 181.519 79.5972 181.821 79.5968H198.649C198.95 79.5972 199.239 79.7458 199.452 80.01C199.666 80.2742 199.786 80.6324 199.786 81.006V101.863C199.786 102.236 199.666 102.594 199.452 102.859C199.239 103.123 198.95 103.271 198.649 103.272V103.272Z" fill="#E5E5E5"/>
<path d="M224.118 103.272H207.29C206.989 103.271 206.7 103.123 206.487 102.859C206.274 102.594 206.154 102.236 206.153 101.863V81.006C206.154 80.6324 206.274 80.2742 206.487 80.01C206.7 79.7459 206.989 79.5972 207.29 79.5968H224.118C224.42 79.5972 224.709 79.7459 224.922 80.01C225.135 80.2742 225.255 80.6324 225.255 81.006V101.863C225.255 102.236 225.135 102.594 224.922 102.859C224.709 103.123 224.42 103.271 224.118 103.272V103.272Z" fill="#E5E5E5"/>
<path d="M147.649 141.885H130.821C130.52 141.884 130.231 141.736 130.018 141.471C129.805 141.207 129.685 140.849 129.684 140.475V119.619C129.685 119.245 129.805 118.887 130.018 118.623C130.231 118.359 130.52 118.21 130.821 118.21H147.649C147.951 118.21 148.24 118.359 148.453 118.623C148.666 118.887 148.786 119.245 148.786 119.619V140.475C148.786 140.849 148.666 141.207 148.453 141.471C148.24 141.736 147.951 141.884 147.649 141.885Z" fill="#E5E5E5"/>
<path d="M173.119 141.885H156.291C155.989 141.884 155.701 141.736 155.487 141.471C155.274 141.207 155.154 140.849 155.154 140.475V119.619C155.154 119.245 155.274 118.887 155.487 118.623C155.701 118.359 155.989 118.21 156.291 118.21H173.119C173.421 118.21 173.71 118.359 173.923 118.623C174.136 118.887 174.256 119.245 174.256 119.619V140.475C174.256 140.849 174.136 141.207 173.923 141.471C173.71 141.736 173.421 141.884 173.119 141.885V141.885Z" fill="#E5E5E5"/>
<path d="M198.589 141.885H181.761C181.459 141.884 181.17 141.736 180.957 141.471C180.744 141.207 180.624 140.849 180.624 140.475V119.619C180.624 119.245 180.744 118.887 180.957 118.623C181.17 118.359 181.459 118.21 181.761 118.21H198.589C198.89 118.21 199.179 118.359 199.392 118.623C199.605 118.887 199.725 119.245 199.726 119.619V140.475C199.725 140.849 199.605 141.207 199.392 141.471C199.179 141.736 198.89 141.884 198.589 141.885V141.885Z" fill="#D3A518"/>
<path d="M224.058 141.885H207.23C206.929 141.884 206.64 141.736 206.427 141.471C206.213 141.207 206.093 140.849 206.093 140.475V119.619C206.093 119.245 206.213 118.887 206.427 118.623C206.64 118.359 206.929 118.21 207.23 118.21H224.058C224.36 118.21 224.649 118.359 224.862 118.623C225.075 118.887 225.195 119.245 225.195 119.619V140.475C225.195 140.849 225.075 141.207 224.862 141.471C224.649 141.736 224.36 141.884 224.058 141.885V141.885Z" fill="#D3A518"/>
<path d="M147.589 180.497H130.761C130.46 180.497 130.171 180.348 129.958 180.084C129.745 179.82 129.625 179.462 129.624 179.088V158.232C129.625 157.858 129.745 157.5 129.958 157.236C130.171 156.972 130.46 156.823 130.761 156.822H147.589C147.891 156.823 148.18 156.972 148.393 157.236C148.606 157.5 148.726 157.858 148.726 158.232V179.088C148.726 179.462 148.606 179.82 148.393 180.084C148.18 180.348 147.891 180.497 147.589 180.497V180.497Z" fill="#E5E5E5"/>
<path d="M173.059 180.497H156.231C155.929 180.497 155.64 180.348 155.427 180.084C155.214 179.82 155.094 179.462 155.094 179.088V158.232C155.094 157.858 155.214 157.5 155.427 157.236C155.64 156.972 155.929 156.823 156.231 156.822H173.059C173.36 156.823 173.649 156.972 173.863 157.236C174.076 157.5 174.196 157.858 174.196 158.232V179.088C174.196 179.462 174.076 179.82 173.863 180.084C173.649 180.348 173.36 180.497 173.059 180.497V180.497Z" fill="#E5E5E5"/>
<path d="M198.528 180.497H181.7C181.399 180.497 181.11 180.348 180.897 180.084C180.684 179.82 180.564 179.462 180.563 179.088V158.232C180.564 157.858 180.684 157.5 180.897 157.236C181.11 156.972 181.399 156.823 181.7 156.822H198.528C198.83 156.823 199.119 156.972 199.332 157.236C199.545 157.5 199.665 157.858 199.666 158.232V179.088C199.665 179.462 199.545 179.82 199.332 180.084C199.119 180.348 198.83 180.497 198.528 180.497V180.497Z" fill="#E5E5E5"/>
<path d="M223.998 180.497H207.17C206.869 180.497 206.58 180.348 206.366 180.084C206.153 179.82 206.033 179.462 206.033 179.088V158.232C206.033 157.858 206.153 157.5 206.366 157.236C206.58 156.972 206.869 156.823 207.17 156.822H223.998C224.3 156.823 224.589 156.972 224.802 157.236C225.015 157.5 225.135 157.858 225.135 158.232V179.088C225.135 179.462 225.015 179.82 224.802 180.084C224.589 180.348 224.3 180.497 223.998 180.497V180.497Z" fill="#E5E5E5"/>
<path d="M147.529 219.11H130.701C130.4 219.11 130.111 218.961 129.897 218.697C129.684 218.433 129.564 218.075 129.564 217.701V196.845C129.564 196.471 129.684 196.113 129.897 195.849C130.111 195.584 130.4 195.436 130.701 195.435H147.529C147.831 195.436 148.12 195.584 148.333 195.849C148.546 196.113 148.666 196.471 148.666 196.845V217.701C148.666 218.075 148.546 218.433 148.333 218.697C148.12 218.961 147.831 219.11 147.529 219.11V219.11Z" fill="#E5E5E5"/>
<path d="M172.999 219.11H156.171C155.869 219.11 155.58 218.961 155.367 218.697C155.154 218.433 155.034 218.075 155.034 217.701V196.845C155.034 196.471 155.154 196.113 155.367 195.849C155.58 195.584 155.869 195.436 156.171 195.435H172.999C173.3 195.436 173.589 195.584 173.802 195.849C174.015 196.113 174.135 196.471 174.136 196.845V217.701C174.135 218.075 174.015 218.433 173.802 218.697C173.589 218.961 173.3 219.11 172.999 219.11Z" fill="#E5E5E5"/>
<path d="M198.468 219.11H181.64C181.339 219.11 181.05 218.961 180.837 218.697C180.623 218.433 180.504 218.075 180.503 217.701V196.845C180.504 196.471 180.623 196.113 180.837 195.849C181.05 195.584 181.339 195.436 181.64 195.435H198.468C198.77 195.436 199.059 195.584 199.272 195.849C199.485 196.113 199.605 196.471 199.605 196.845V217.701C199.605 218.075 199.485 218.433 199.272 218.697C199.059 218.961 198.77 219.11 198.468 219.11Z" fill="#E5E5E5"/>
<path d="M223.938 219.11H207.11C206.808 219.11 206.519 218.961 206.306 218.697C206.093 218.433 205.973 218.075 205.973 217.701V196.845C205.973 196.471 206.093 196.113 206.306 195.849C206.519 195.584 206.808 195.436 207.11 195.435H223.938C224.239 195.436 224.528 195.584 224.741 195.849C224.955 196.113 225.075 196.471 225.075 196.845V217.701C225.075 218.075 224.955 218.433 224.741 218.697C224.528 218.961 224.239 219.11 223.938 219.11V219.11Z" fill="#E5E5E5"/>
<path d="M147.71 305.355H130.882C130.58 305.355 130.291 305.206 130.078 304.942C129.865 304.678 129.745 304.319 129.745 303.946V283.089C129.745 282.716 129.865 282.357 130.078 282.093C130.291 281.829 130.58 281.68 130.882 281.68H147.71C148.011 281.68 148.3 281.829 148.513 282.093C148.726 282.357 148.846 282.716 148.847 283.089V303.946C148.846 304.319 148.726 304.678 148.513 304.942C148.3 305.206 148.011 305.355 147.71 305.355Z" fill="white"/>
<path d="M173.179 305.355H156.351C156.05 305.355 155.761 305.206 155.548 304.942C155.334 304.678 155.214 304.319 155.214 303.946V283.089C155.214 282.716 155.334 282.357 155.548 282.093C155.761 281.829 156.05 281.68 156.351 281.68H173.179C173.481 281.68 173.77 281.829 173.983 282.093C174.196 282.357 174.316 282.716 174.316 283.089V303.946C174.316 304.319 174.196 304.678 173.983 304.942C173.77 305.206 173.481 305.355 173.179 305.355V305.355Z" fill="white"/>
<path d="M198.649 305.355H181.821C181.519 305.355 181.23 305.206 181.017 304.942C180.804 304.678 180.684 304.319 180.684 303.946V283.089C180.684 282.716 180.804 282.357 181.017 282.093C181.23 281.829 181.519 281.68 181.821 281.68H198.649C198.95 281.68 199.239 281.829 199.452 282.093C199.666 282.357 199.786 282.716 199.786 283.089V303.946C199.786 304.319 199.666 304.678 199.452 304.942C199.239 305.206 198.95 305.355 198.649 305.355V305.355Z" fill="white"/>
<path d="M224.118 305.355H207.29C206.989 305.355 206.7 305.206 206.487 304.942C206.274 304.678 206.154 304.319 206.153 303.946V283.089C206.154 282.716 206.274 282.357 206.487 282.093C206.7 281.829 206.989 281.68 207.29 281.68H224.118C224.42 281.68 224.709 281.829 224.922 282.093C225.135 282.357 225.255 282.716 225.255 283.089V303.946C225.255 304.319 225.135 304.678 224.922 304.942C224.709 305.206 224.42 305.355 224.118 305.355Z" fill="white"/>
<path d="M169.253 261.387C170.509 261.387 171.527 260.125 171.527 258.569C171.527 257.012 170.509 255.75 169.253 255.75C167.997 255.75 166.979 257.012 166.979 258.569C166.979 260.125 167.997 261.387 169.253 261.387Z" fill="#E5E5E5"/>
<path d="M177.44 261.387C178.696 261.387 179.714 260.125 179.714 258.569C179.714 257.012 178.696 255.75 177.44 255.75C176.184 255.75 175.166 257.012 175.166 258.569C175.166 260.125 176.184 261.387 177.44 261.387Z" fill="#E5E5E5"/>
<path d="M185.626 261.387C186.882 261.387 187.901 260.125 187.901 258.569C187.901 257.012 186.882 255.75 185.626 255.75C184.371 255.75 183.352 257.012 183.352 258.569C183.352 260.125 184.371 261.387 185.626 261.387Z" fill="#E5E5E5"/>
<path d="M323.647 326.643H31.3526C31.2591 326.643 31.1694 326.597 31.1033 326.515C31.0371 326.433 31 326.322 31 326.206C31 326.09 31.0371 325.979 31.1033 325.897C31.1694 325.815 31.2591 325.769 31.3526 325.769H323.647C323.741 325.769 323.831 325.815 323.897 325.897C323.963 325.979 324 326.09 324 326.206C324 326.322 323.963 326.433 323.897 326.515C323.831 326.597 323.741 326.643 323.647 326.643Z" fill="#CBCBCB"/>
<path d="M146.072 240.6C146.548 240.01 146.913 239.299 147.143 238.516C147.373 237.732 147.461 236.896 147.402 236.065C147.343 235.235 147.138 234.431 146.801 233.709C146.464 232.988 146.003 232.367 145.451 231.89L149.892 212.387L141.796 215.579L138.82 233.609C138.235 234.811 138.026 236.237 138.232 237.617C138.439 238.997 139.047 240.235 139.941 241.097C140.834 241.959 141.952 242.384 143.082 242.292C144.212 242.201 145.276 241.598 146.072 240.6V240.6Z" fill="#FFB7B7"/>
<path d="M148.374 228.646C148.23 228.68 148.082 228.696 147.935 228.692L140.168 228.499C139.875 228.492 139.588 228.407 139.324 228.251C139.06 228.096 138.826 227.872 138.637 227.595C138.448 227.319 138.309 226.995 138.229 226.647C138.149 226.298 138.13 225.933 138.172 225.574L146.052 159.592C146.287 157.684 147.065 155.942 148.246 154.683C149.426 153.423 150.931 152.729 152.489 152.724C153.473 152.727 154.443 153.007 155.326 153.543C156.21 154.079 156.984 154.856 157.589 155.817C158.194 156.778 158.616 157.896 158.822 159.089C159.027 160.281 159.011 161.515 158.776 162.699L153.191 190.735L150.023 226.42C149.977 226.961 149.792 227.469 149.495 227.87C149.198 228.271 148.805 228.543 148.374 228.646V228.646Z" fill="#3F3D56"/>
<path d="M151.622 332.807H155.945L158.001 312.142L151.621 312.143L151.622 332.807Z" fill="#FFB7B7"/>
<path d="M150.519 331.058L159.032 331.057H159.033C160.471 331.057 161.851 331.766 162.869 333.027C163.886 334.288 164.458 335.998 164.458 337.781V337.999L150.52 338L150.519 331.058Z" fill="#2F2E41"/>
<path d="M170.054 331.067L174.35 331.663L178.252 311.412L171.911 310.531L170.054 331.067Z" fill="#FFB7B7"/>
<path d="M169.115 329.176L177.575 330.352L177.576 330.352C179.006 330.551 180.313 331.445 181.211 332.839C182.108 334.232 182.523 336.011 182.362 337.783L182.343 338L168.491 336.075L169.115 329.176Z" fill="#2F2E41"/>
<path d="M147.565 217.812C147.565 217.812 141.638 234.072 146.872 244.633L149.99 326.861H157.148L164.093 260.438L176.434 280.103L168.915 325.999L177.671 326.609L189.832 280.103C189.832 280.103 180.489 228.823 177.404 227.588L175.376 215.865L147.565 217.812Z" fill="#2F2E41"/>
<path d="M144.927 232.087C144.927 232.087 139.588 239.681 153.692 242.303C167.795 244.925 182.604 240.992 182.957 235.748C183.309 230.505 144.927 232.087 144.927 232.087Z" fill="#CBCBCB"/>
<path d="M215.627 137.885C215.605 138.626 215.452 139.353 215.18 140.013C214.907 140.673 214.52 141.251 214.048 141.706C213.575 142.162 213.028 142.483 212.444 142.647C211.861 142.812 211.255 142.816 210.67 142.659L205.339 152.188L199.877 149.585L207.558 136.26C207.836 135.059 208.459 134.027 209.31 133.358C210.161 132.689 211.18 132.43 212.175 132.63C213.169 132.831 214.07 133.476 214.706 134.445C215.343 135.413 215.67 136.637 215.627 137.885V137.885Z" fill="#FFB7B7"/>
<path d="M170.541 150.144L163.004 145.918L153.347 146.774C153.347 146.774 141.704 163.645 146.288 179.813L143.467 236.185C161.449 242.303 169.623 230.829 182.604 235.748L178.595 173.097L170.541 150.144Z" fill="#3F3D56"/>
<path d="M165.504 154.249L170.541 150.144C170.541 150.144 177.539 148.833 180.336 152.197C180.336 152.197 189.83 153.182 192.123 156.119L194.647 156.824L203.034 143.364L208.167 146.82L200.762 171.729L178.595 173.097L165.504 154.249Z" fill="#3F3D56"/>
<path d="M167.242 141.177C173.008 137.271 175.127 128.311 171.975 121.165C168.823 114.019 161.594 111.393 155.828 115.299C150.062 119.206 147.943 128.165 151.095 135.311C154.247 142.458 161.476 145.084 167.242 141.177Z" fill="#FFB7B7"/>
<path d="M151.244 116.709C153.368 111.975 156.022 108.91 160.391 109.02C164.761 109.131 168.54 108.917 170.506 113.755C171.026 112.549 171.286 111.198 171.262 109.831C171.856 110.309 172.324 110.991 172.608 111.794C172.892 112.598 172.981 113.487 172.862 114.352C173.245 114.074 173.565 113.682 173.793 113.211C174.022 112.74 174.151 112.206 174.17 111.657C175.628 112.259 176.007 114.806 175.269 116.477C174.531 118.148 173.084 119.114 171.696 119.931C170.307 120.748 170.948 125.068 170.042 126.606C169.409 127.679 169.12 128.995 168.693 130.215C168.675 130.263 168.645 130.302 168.607 130.326C167.629 131.002 167.012 132.209 167.185 133.58C167.205 133.683 167.2 133.791 167.171 133.89C165.933 136.78 164.597 139.803 162.354 141.528C160.554 142.875 158.398 143.288 156.353 142.677C154.06 141.998 152.078 140.114 150.648 137.79C149.219 135.466 148.299 132.72 147.609 129.926C146.996 127.448 146.55 124.798 147.036 122.276C147.522 119.755 149.168 117.421 151.254 117.226" fill="#2F2E41"/>
</g>
<defs>
<linearGradient id="paint0_linear" x1="355.548" y1="3.8216" x2="16.6428" y2="253.66" gradientUnits="userSpaceOnUse">
<stop stop-color="#B4D0FC"/>
<stop offset="1" stop-color="#AAC4EB" stop-opacity="0.13"/>
</linearGradient>
<clipPath id="clip0">
<rect width="293" height="319" fill="white" transform="translate(31 19)"/>
</clipPath>
</defs>
</svg>
