<svg width="280" height="180" viewBox="0 0 280 180" fill="none" xmlns="http://www.w3.org/2000/svg">
<g style="mix-blend-mode:darken">
<g clip-path="url(#clip0)">
<path d="M280 0H0V180H280V0Z" fill="url(#paint0_linear)"/>
<g opacity="0.5">
<g opacity="0.5">
<g opacity="0.5">
<path opacity="0.5" d="M0 31.3163V33.1531L280 27.6429V26.3388L0 31.3163Z" fill="white"/>
</g>
<g opacity="0.5">
<path opacity="0.5" d="M0 39.802L280 35.8898V28.5796L0 38.4429V39.802Z" fill="white"/>
</g>
<g opacity="0.5">
<path opacity="0.5" d="M280 38.0755L0 41.6388V45.6796L280 43.2V38.0755Z" fill="white"/>
</g>
<g opacity="0.5">
<path opacity="0.5" d="M280 66.7469L0 69.5204V74.7551H280V66.7469Z" fill="white"/>
</g>
<g opacity="0.5">
<path opacity="0.5" d="M280 80.4857H0V180H280V80.4857Z" fill="white"/>
</g>
<g opacity="0.5">
<path opacity="0.5" d="M280 55.8735L0 52.402V68.6204L280 63.1837V55.8735Z" fill="white"/>
</g>
</g>
</g>
<path d="M276.02 94.9959V80.0265H272V81.7898H270.66V78.6122L269.12 77.198V83.5347H266.8V100.616H264.3V88.9898H262.2V92.2041H260.86V94.0959H262.2V96.7408H259.32V87.2449H256.06V85.6653H252.6V81.0918H243.8V101.682H233.84V98.1551H230.78V96.2265H229.44V88.6592H223.68V96.7592H220.22V93.7653H218.6V98.5225H216.4V100.102H218.6V104.584L211.98 98.5041V89.7061H206.62V85.0959H207.24C207.24 83.8102 206.1 82.7633 204.7 82.7633C203.3 82.7633 202.16 83.8102 202.16 85.0959H202.98V89.7061H202.02V98.6878H200.3C200.3 93.9306 194.54 93.9306 194.54 93.9306V84.7837H196.26V79.8612H189.94V84.6184H192.04V94.1326H190.5V85.8673H186.86V95.5469H185.14V88.6775H181.3V95.0143L173.64 87.9796V80.5775H171.54V87.9796H162.92V91.8367H159.28V89.7245H154.3V93.7653H152.96V89.7245H150.94V94.0408L149.88 95.0143H146.1V80.0449H142.08V81.8082H140.74V78.6306L139.2 77.2163V83.5531H136.9V84.0857H132.64V79.8612H129.76V84.0857H128.54V87.2449H126.18V85.6653H122.72V81.0918H113.9V101.682H103.94V98.1551H100.88V96.2265H99.5402V88.6592H93.7801V96.7592H90.3201V93.7653H88.7001V98.5225H86.5001V100.102H88.7001V104.584L82.0801 98.5041V89.7061H76.7201V85.0959H77.3401C77.3401 83.8102 76.2001 82.7633 74.8001 82.7633C73.4001 82.7633 72.2601 83.8102 72.2601 85.0959H73.0801V89.7061H72.1201V98.6878H70.4001C70.4001 93.9306 64.6401 93.9306 64.6401 93.9306V84.7837H66.3601V79.8612H60.0401V84.6184H62.1401V94.1326H60.6001V85.8673H56.9601V95.5469H55.2401V88.6775H51.4001V95.0143L43.7401 87.9796V80.5775H41.6401V87.9796H33.0001V91.8367H29.3601V89.7245H24.3801V93.7653H23.0401V89.7245H21.0201V94.0408L14.9801 99.5878L12.3001 97.1265V95.5469H10.1801V84.1041H2.72012V79.8796H-0.159882V84.1041H-1.87988V137.443H128.52H151.96H281.88V94.9959H276.02Z" fill="url(#paint1_linear)"/>
<path d="M280 136.249H0V180H280V136.249Z" fill="#6D243D"/>
<path d="M280 145.286H0V180H280V145.286Z" fill="url(#paint2_linear)"/>
<path d="M280 148.959H0V151.622H280V148.959Z" fill="white"/>
<path d="M264.22 128.149C264.22 133.99 262.36 138.729 262.36 138.729C262.36 138.729 260.5 133.99 260.5 128.149C260.5 122.308 262.36 117.569 262.36 117.569C262.36 117.569 264.22 122.308 264.22 128.149Z" fill="#6D243D"/>
<path d="M267.14 133.273C267.14 135.716 266.36 137.682 266.36 137.682C266.36 137.682 265.58 135.716 265.58 133.273C265.58 130.831 266.36 128.865 266.36 128.865C266.36 128.865 267.14 130.831 267.14 133.273Z" fill="#6D243D"/>
<path d="M247.1 133.273C247.1 135.716 246.32 137.682 246.32 137.682C246.32 137.682 245.54 135.716 245.54 133.273C245.54 130.831 246.32 128.865 246.32 128.865C246.32 128.865 247.1 130.831 247.1 133.273Z" fill="#6D243D"/>
<path d="M229.66 133.273C229.66 135.716 228.88 137.682 228.88 137.682C228.88 137.682 228.1 135.716 228.1 133.273C228.1 130.831 228.88 128.865 228.88 128.865C228.88 128.865 229.66 130.831 229.66 133.273Z" fill="#6D243D"/>
<path d="M250.14 53.7428C250.18 52.8612 250.4 52.0163 250.4 51.1347C250.38 50.253 250.08 49.3347 249.28 48.8204C248.42 48.2694 247.2 48.4163 246.32 48.9306C245.44 49.4632 244.86 50.3081 244.38 51.1714C243.7 52.402 243.22 53.7428 243.24 55.1388C243.24 55.8183 243.38 56.4796 243.42 57.1592C243.5 58.1694 243.4 59.1796 243.14 60.153C243.08 60.3734 243.02 60.5939 243.12 60.7959C243.28 61.1265 243.76 61.1632 244.16 61.1265C245.78 61.0347 250.3 60.8694 251.28 59.4367C252.14 58.1877 250.06 55.3041 250.14 53.7428Z" fill="#BFD1DD"/>
<path d="M251.3 59.4367C252.14 58.1877 250.08 55.3224 250.16 53.7428C250.2 52.8612 250.42 52.0163 250.42 51.1347C250.42 50.253 250.1 49.3347 249.3 48.8204C249.16 48.7285 249 48.6551 248.86 48.6C249.18 49.0408 249.34 49.6469 249.38 50.1979C249.46 51.1347 249.42 52.0898 249.24 53.0265C249.16 53.449 249.06 53.8714 249.14 54.2939C249.2 54.5877 249.36 54.8816 249.5 55.1571C250.24 56.6081 250.76 58.1326 251.06 59.7122C251.14 59.6204 251.22 59.5285 251.3 59.4367Z" fill="white"/>
<path d="M245.58 56.4612C246.12 55.4877 247.16 54.6612 248.34 54.6061C247.46 54.5877 246.6 54.5694 245.72 54.551C246.14 53.6694 246.84 52.9347 247.28 52.0714C247.72 51.2081 247.88 50.1061 247.26 49.353C247.06 49.1143 246.74 48.949 246.42 48.8755C246.38 48.8939 246.36 48.9122 246.32 48.9306C245.44 49.4632 244.86 50.3081 244.38 51.1714C243.7 52.402 243.22 53.7428 243.24 55.1388C243.24 55.8183 243.38 56.4796 243.42 57.1592C243.5 58.1694 243.4 59.1796 243.14 60.153C243.08 60.3734 243.02 60.5939 243.12 60.7959C243.28 61.1265 243.76 61.1632 244.16 61.1265C244.28 61.1265 244.4 61.1081 244.54 61.1081C244.6 60.6306 244.66 60.1347 244.74 59.6571C244.88 58.5734 245.04 57.453 245.58 56.4612Z" fill="#A3B6C1"/>
<path d="M143.02 120.729C134.96 122.804 126.1 125.614 117.98 123.741C116.88 123.484 115.78 123.227 114.84 122.639C113.4 121.72 112.62 120.178 111.92 118.69C109.56 113.639 107.42 108.147 105.48 102.949C114.08 96.6123 123.84 91.598 134.2 88.1265C140.3 86.0878 146.6 84.6 152.88 83.1123C156.96 82.1388 161.04 81.1837 165.12 80.2102C168.32 79.4572 170.98 78.7592 174.26 79.0347C176.24 79.2 178.22 79.7143 180.2 79.4939C184.64 78.998 189.02 81.9735 193.44 82.5796C195.08 82.8 196.74 82.9653 198.36 83.3327C201.88 84.1408 205.02 85.9041 208.12 87.649C213.56 90.7163 221.02 88.6959 227.12 90.4776C229.04 96.5571 228.96 102.894 228.86 109.231C228.84 110.92 228.8 112.665 228.14 114.245C227.48 115.824 226.04 117.239 224.2 117.478C215.4 118.58 206.3 116.486 197.42 116.192C194.08 116.082 190.76 116.137 187.42 116.173C176.38 116.339 165.28 116.504 154.4 118.249C150.56 118.892 146.76 119.773 143.02 120.729Z" fill="#DE4035"/>
<path d="M161.46 81.0918C158.6 81.7714 155.74 82.451 152.88 83.1306C146.6 84.6183 140.3 86.1061 134.2 88.1449C124.5 91.3775 115.36 95.9878 107.16 101.755C112.96 98.6327 122.2 94.0224 124.08 93.1224C134.84 87.9245 151.3 84.251 161.46 81.0918Z" fill="white"/>
<path d="M198.36 83.351C196.74 82.9837 195.08 82.8184 193.44 82.5979C189.54 82.0653 185.7 79.7143 181.82 79.4755C182.48 79.7877 183.14 80.0816 183.82 80.3204C186.66 81.349 189.68 81.8449 192.62 82.5612C198.3 83.9571 203.72 86.2347 208.6 89.2469C207.34 89.1551 206.04 89.5408 205.1 90.3306C210.06 89.0265 215.32 90.6796 220.46 90.8081C222.56 90.8632 224.7 90.6612 226.84 90.4408C220.8 88.8061 213.48 90.7163 208.1 87.6857C205.02 85.9408 201.88 84.1592 198.36 83.351Z" fill="white"/>
<path d="M225.84 101.902C221.06 107.302 214.28 111.38 206.78 112.353C208.14 106.714 208.18 100.818 206.88 95.1612C205.88 97.9714 203.66 100.396 200.84 101.81C199.68 97.2735 200.66 92.3327 203.46 88.4572C201.24 89.5408 200.04 91.8551 199.48 94.1143C198.92 96.3735 198.82 98.7245 198.02 100.929C197.12 103.335 195.38 105.447 193.1 106.88C192.84 102.729 192.56 98.5592 192.3 94.4082C192.04 90.4225 191.8 86.3449 192.52 82.4327C191.72 82.2674 190.94 82.0469 190.16 81.7898C189 85.2612 188.42 88.9531 187.88 92.5714C187.46 95.3265 186.46 98.0449 186.04 100.782C182.3 100.947 177.78 101.773 174.04 101.884C171.18 101.976 168.3 101.773 165.5 101.278C170.24 99.4225 174.86 97.0714 178.3 93.5265C181.72 90 183.8 85.1143 182.78 80.4857C182.72 80.1735 182.64 79.8429 182.54 79.5306C181.78 79.4388 181.02 79.4204 180.26 79.5123C178.28 79.7327 176.3 79.2367 174.32 79.0531C171.02 78.7592 168.38 79.4572 165.18 80.2286C161.1 81.202 157.02 82.1572 152.94 83.1306C150.68 83.6633 148.42 84.1959 146.18 84.7653C144.82 87.3551 143.94 90.2021 143.46 93.049C142.6 98.0633 142.92 102.343 143.14 107.412C139.56 102.655 137.08 97.2184 135.86 91.5429C133.3 97.6225 137.34 104.253 137.54 110.773C137.58 112.206 137.42 113.694 136.58 114.906C135.56 116.376 133.72 117.147 131.96 117.808C126.16 119.957 119.9 121.5 113.7 121.629C114.04 122.033 114.44 122.382 114.9 122.676C115.82 123.263 116.94 123.52 118.04 123.778C126.16 125.651 135.02 122.841 143.08 120.765C146.82 119.81 150.62 118.91 154.46 118.304C165.34 116.559 176.44 116.394 187.48 116.229C190.82 116.173 194.14 116.137 197.48 116.247C206.36 116.541 215.46 118.635 224.26 117.533C226.1 117.312 227.54 115.88 228.2 114.3C228.86 112.72 228.9 110.976 228.92 109.286C228.98 105.631 229.02 101.957 228.68 98.3388C227.76 99.551 226.84 100.763 225.84 101.902Z" fill="#BFD1DD"/>
<path d="M118.96 118.873C118.7 115.916 118.14 112.922 116.7 110.278C115.26 107.633 112.88 105.3 109.82 104.308C108.64 103.922 107.38 103.757 106.14 103.684C106 103.684 105.88 103.665 105.74 103.665C107.62 108.661 109.66 113.878 111.92 118.69C112.62 120.178 113.4 121.72 114.84 122.639C115.66 123.153 116.64 123.429 117.62 123.649C119 122.565 119.1 120.582 118.96 118.873Z" fill="#AB2325"/>
<path d="M223.68 106.733L221.48 112.61C221.48 112.61 222.4 115.769 225.04 117.276C226.46 116.78 227.56 115.567 228.12 114.245C228.78 112.665 228.82 110.92 228.84 109.231C228.86 108 228.88 106.769 228.88 105.539C227.18 106.182 225.46 106.733 223.68 106.733Z" fill="#DE4035"/>
<path d="M207.08 143.449C207.1 131.988 207.14 120.839 207.18 109.433C207.18 107.633 206.2 105.98 204.58 104.951L204.56 104.933C199.84 101.865 193.66 101.443 187.9 101.902C182.14 102.361 176.42 103.592 170.64 103.427C167.08 103.316 163.54 102.692 159.96 102.6C153.54 102.416 147.24 103.978 141.04 105.52C139.44 117.294 139 128.976 140.92 140.694C141.2 142.42 144.02 142.733 145.86 143.155C161.68 146.847 178.08 150.116 194.22 147.876C198.76 147.233 203.66 146.259 207.08 143.449Z" fill="#5C788D"/>
<path d="M207.16 109.433C207.16 107.633 206.18 105.98 204.56 104.951L204.54 104.933C201.3 102.839 197.38 101.975 193.38 101.792C195.06 102.233 196.68 102.784 198.2 103.555C200.56 104.749 202.64 106.549 203.62 108.845C204.28 110.388 204.42 112.078 204.54 113.731C205.32 123.814 206.1 133.935 206.26 144.037C206.52 143.853 206.78 143.651 207.04 143.449C207.1 131.988 207.14 120.839 207.16 109.433Z" fill="white"/>
<path d="M150.32 128.829C149 128.222 147.64 127.561 146.84 126.441C146.14 125.486 145.96 124.292 145.86 123.135C145.64 120.582 145.8 118.01 146.34 115.494C146.44 114.998 146.58 114.484 146.92 114.098C147.44 113.529 148.3 113.345 149.04 113.051C151.26 112.169 152.38 110.039 152.02 107.835C154.8 106.439 158.48 106.384 161.64 106.641C165.44 106.953 169.26 107.669 173.06 107.302C177.64 106.843 182.02 104.804 186.62 105.043C187.06 105.061 187.54 105.116 187.88 105.392C188.18 105.649 188.32 106.035 188.44 106.384C189.46 109.065 192.16 111.159 195.2 111.637C195.28 108.514 195.3 105.171 195.1 101.902C192.7 101.663 190.26 101.7 187.88 101.884C182.12 102.343 176.4 103.573 170.62 103.408C167.06 103.298 163.52 102.673 159.94 102.582C153.52 102.398 147.22 103.959 141.02 105.502C139.42 117.276 138.98 128.957 140.9 140.675C141.18 142.402 144 142.714 145.84 143.137C161.66 146.829 178.06 150.098 194.2 147.857C196.9 147.49 199.72 146.994 202.28 146.057C200.56 145.745 198.86 145.359 197.18 144.955C181.02 141.08 165.28 135.661 150.32 128.829Z" fill="#455E6C"/>
<path d="M162.04 79.3469C162.34 81.9735 162.66 84.6184 162.96 87.2449C163.44 91.3224 169.52 92.3877 173.94 91.8367C178.36 91.2857 182.22 87.9796 183.1 83.9571C183.66 81.4776 182.18 78.7408 181.64 76.2612C181.6 76.0592 181.54 75.8571 181.36 75.7286C181.22 75.6367 181.02 75.6184 180.84 75.6184C174.42 75.6367 168.1 77.4735 162.04 79.3469Z" fill="#FDC19F"/>
<path d="M175.98 87.4653C178.24 84.5633 180.5 81.6245 182.28 78.4469C182.04 77.6939 181.8 76.9592 181.64 76.2429C181.6 76.0408 181.54 75.8388 181.36 75.7102C181.22 75.6184 181.02 75.6 180.84 75.6C174.44 75.6 168.1 77.4367 162.04 79.3102C162.34 81.9367 162.66 84.5816 162.96 87.2082C163.36 90.6061 167.64 91.9102 171.6 91.9286C171.74 91.8367 171.88 91.7449 172.02 91.6531C173.6 90.5327 174.8 88.9898 175.98 87.4653Z" fill="#BFD1DD"/>
<path d="M186.24 62.5041C186.88 62.0816 187.8 61.7694 188.4 62.2286C188.66 62.4123 188.8 62.7061 188.88 63C189.16 63.9735 188.84 64.9837 188.42 65.902C188 66.8204 187.46 67.7021 187.22 68.6939C186.96 69.7959 187.12 71.0449 186.4 71.9449C185.72 72.7898 184.46 73.1021 183.32 73.0286C182.66 69.098 182.34 65.0572 186.24 62.5041Z" fill="url(#paint3_linear)"/>
<path d="M153.96 65.1857C153.68 66.3061 154.06 67.4633 154.56 68.5102C155.06 69.5571 155.7 70.5673 155.92 71.6878C156 72.1286 156.04 72.5694 156.28 72.9551C156.72 73.6714 157.7 73.9469 158.6 74.002C157.84 71.7429 157.6 69.4286 156.96 67.151C156.72 66.3061 154.48 63.1102 153.96 65.1857Z" fill="url(#paint4_linear)"/>
<path d="M184.76 53.8163C185.4 58.2245 184.3 62.8531 184.06 67.2796C183.88 70.6408 184.98 74.7918 182.84 77.5286C181.12 79.751 179.34 81.9551 177.54 84.1225C177.22 84.5082 176.88 84.9123 176.44 85.151C175.98 85.4082 175.44 85.5 174.92 85.5551C171.78 85.9776 168.28 86.8959 165.3 85.8857C164.62 85.6469 164.12 85.1327 163.66 84.6184C162.42 83.2408 160.66 81.9918 160.18 80.2653C159.52 77.9694 158.78 75.7837 157.66 73.6531C156.86 72.1286 156.06 70.5857 155.76 68.9143C155.6 68.0878 155.58 67.2429 155.56 66.4163C155.48 63.9367 155.4 61.4571 155.32 58.9592C161.88 55.6163 169.36 54.0551 176.76 52.9163C177.78 52.751 178.8 52.6041 179.84 52.6959C181.3 52.8429 183.44 53.1551 184.76 53.8163Z" fill="#FDC19F"/>
<path d="M179.22 78.1898C179.04 76.5 178.64 74.7551 177.94 73.1755C172.84 73.1571 167.22 73.6714 162.24 74.7C161.18 76.2612 160.84 78.2265 161.28 80.0082C160.84 79.402 160.02 78.7592 159.62 78.1531C159.54 78.0245 159.44 77.8959 159.36 77.7674C159.64 78.5939 159.9 79.4388 160.14 80.2837C160.64 82.0102 162.4 83.2592 163.62 84.6367C164.08 85.151 164.58 85.6837 165.26 85.9041C168.24 86.9143 171.74 85.9959 174.88 85.5735C175.4 85.5 175.94 85.4082 176.4 85.1694C176.86 84.9123 177.18 84.5265 177.5 84.1408C179.3 81.9735 181.08 79.7694 182.8 77.5469C184.94 74.8102 183.82 70.6592 184.02 67.298C184.12 65.5347 184.34 63.7531 184.56 61.9531C184.22 63.9367 183.88 65.9204 183.54 67.9041C182.92 71.5776 181.86 75.3429 179.22 78.1898Z" fill="#D8B09C"/>
<path d="M181.76 59.8776C181.76 59.8776 183.12 65.902 183.02 67.5184C183.72 67.3714 184.34 67.0041 184.78 66.4898C185.94 65.149 188.02 62.3939 187.54 60.3367C186.9 57.5265 186.58 53.8163 186.58 53.8163L181.76 59.8776Z" fill="#B85952"/>
<path d="M156.22 59.4551C156.22 59.4551 155.32 64.598 155.62 68.1429C155.62 68.1429 153.58 61.0714 154.26 57.6551C154.94 54.2388 156.22 59.4551 156.22 59.4551Z" fill="#B85952"/>
<path d="M165.5 62.5592C165.36 63.0551 165.34 63.5878 165.4 64.102C162.84 63.6061 160.06 63.0367 157.56 63.7531C157.52 63.2571 157.48 62.8898 157.44 62.3939C159.98 61.751 162.96 63.0735 165.5 62.5592Z" fill="#7C3436"/>
<path d="M177.64 61.402C177.74 62.0449 177.86 62.7245 177.94 63.349C175.22 63.3306 172.48 63.6612 169.84 64.3041C169.34 63.6429 169 62.8898 168.82 62.0816C171.6 61.8245 174.86 61.6775 177.64 61.402Z" fill="#7C3436"/>
<path d="M163.466 68.164C164.007 68.1594 164.437 67.2923 164.427 66.2272C164.416 65.1621 163.969 64.3023 163.428 64.3068C162.886 64.3113 162.456 65.1784 162.467 66.2436C162.477 67.3087 162.924 68.1685 163.466 68.164Z" fill="#763131"/>
<path d="M173.186 67.9619C173.727 67.9574 174.158 67.0903 174.147 66.0252C174.137 64.9601 173.689 64.1003 173.148 64.1048C172.607 64.1093 172.177 64.9764 172.187 66.0415C172.198 67.1067 172.645 67.9665 173.186 67.9619Z" fill="#763131"/>
<path d="M165.3 71.1367C165.14 71.4306 164.96 71.7245 164.88 72.0551C164.72 72.6612 164.92 73.3592 165.42 73.8C166.08 74.4061 167.14 74.5347 168.06 74.3143C168.98 74.0939 169.78 73.598 170.54 73.1204C170.72 73.0102 170.88 72.9 171 72.7347C171.12 72.551 171.14 72.3306 171.14 72.1286C171.22 70.7878 171.28 69.4286 170.88 68.1429C170.48 66.8571 169.54 65.6449 168.16 65.2041C167.92 65.1306 167.66 65.0755 167.42 65.149C166.64 65.3694 166.72 67.3531 166.56 67.9959C166.26 69.0796 165.84 70.1449 165.3 71.1367Z" fill="url(#paint5_linear)"/>
<path d="M179.16 68.3265C178.14 68.8041 177.1 69.2816 176.08 69.7592C175.46 70.053 174.82 70.3469 174.16 70.5306C172.48 70.9898 171.72 69.6857 173.34 68.951C174.96 68.2347 177.42 68.2531 179.16 68.3265Z" fill="#FB9C7F"/>
<path d="M163.8 70.2735C164 70.5673 164 71.0082 163.7 71.2286C163.3 71.5225 162.74 71.2837 162.3 71.0633C161.18 70.5306 159.2 70.4571 158.32 69.7408C159.32 68.5285 163 69.1163 163.8 70.2735Z" fill="#FB9C7F"/>
<path d="M176.52 74.6265C173.8 75.0673 171.12 75.6918 168.52 76.5551C166.86 76.1877 165.12 76.0959 163.42 76.2429C163.94 77.0143 164.42 77.8041 165.28 78.2816C166.3 78.8327 167.58 78.7959 168.76 78.6857C169.72 78.5939 170.68 78.4653 171.64 78.3C172.2 78.2082 172.76 78.098 173.28 77.8592C174.56 77.2898 175.82 75.7837 176.52 74.6265Z" fill="#763131"/>
<path d="M166.12 80.2837C169 80.9082 172.04 80.302 174.66 78.5755C172.44 81.6612 168.82 82.598 166.12 80.2837Z" fill="#FDC19F"/>
<path d="M151.18 83.1306C149.42 83.5531 147.7 83.8653 145.88 83.9388C145.24 92.2776 145.58 100.671 146.86 108.937C147.08 110.388 148.48 111.435 150.08 111.324C151.84 111.214 153.12 109.763 152.88 108.165C151.52 99.2204 150.76 91.7265 151.18 83.1306Z" fill="#5C788D"/>
<path d="M196.8 82.3592C194.4 82.1571 191.8 81.8632 189.58 81C189.76 90.4775 190.32 99.9551 191.24 109.414C191.36 110.553 192.28 111.471 193.5 111.673C195.24 111.967 196.82 110.7 196.74 109.084C196.36 100.157 196.52 91.2857 196.8 82.3592Z" fill="#5C788D"/>
<path d="M113.92 100.176C108.64 101.333 103.32 103.096 99.3199 106.494C96.6199 108.79 94.6399 111.729 93.2599 114.869C92.6199 116.357 92.1199 118.12 93.0199 119.48C94.0999 121.133 96.5799 121.335 98.6599 121.353C101.06 121.371 103.5 121.39 105.8 120.784C108.44 120.086 110.74 118.616 112.9 117.073C117.26 113.988 121.32 110.553 125.04 106.843C125.3 106.586 125.56 106.31 125.68 105.98C125.8 105.649 125.78 105.3 125.74 104.969C125.6 103.169 125.34 98.1918 122.84 97.5673C121.7 97.2735 119.92 98.6326 118.8 98.9816C117.24 99.4959 115.56 99.8082 113.92 100.176Z" fill="url(#paint6_linear)"/>
<path d="M248.6 85.1694C246.98 89.8163 244.84 94.2979 242.22 98.5408C239.96 102.178 237.32 105.686 233.84 108.367C230.36 111.067 226.04 112.647 221.48 112.61C220.56 107.669 220.7 102.6 221.72 97.6775C222.36 94.5735 224.34 91.8184 227.14 89.9816C228.9 88.8428 230.7 87.7408 232.52 86.6755C234.66 85.4265 236.9 84.1775 238.4 82.3041C239.5 82.3224 240.8 82.2673 241.88 82.3041C243.06 82.3224 244.24 82.3592 245.38 82.6347C246.52 82.9102 247.62 83.4428 248.3 84.3245C248.36 84.3979 248.4 84.453 248.5 84.4898C248.58 84.5081 248.7 84.453 248.68 84.3796C248.66 84.3061 248.56 85.0959 248.6 85.1694Z" fill="url(#paint7_linear)"/>
<path d="M235.92 81.6429C235.24 84.6367 237.5 87.7041 240.5 89.0081C243.5 90.3122 247.02 90.1653 250.26 89.4857C251.64 89.1918 253.08 88.7694 253.92 87.7408C254.3 87.2816 254.54 86.7306 254.76 86.1979C255.72 83.7551 256.24 81.1653 256.32 78.5571C256.34 78.0245 256.32 77.4735 256.02 77.0143C255.74 76.5918 255.22 76.3347 254.74 76.1143C248.56 73.4143 237.58 74.2776 235.92 81.6429Z" fill="#BFD1DD"/>
<path d="M253.94 87.7408C254.32 87.2816 254.56 86.7306 254.78 86.198C255.74 83.7551 256.26 81.1653 256.34 78.5571C256.36 78.0245 256.34 77.4734 256.04 77.0143C255.76 76.5918 255.24 76.3347 254.76 76.1143C250.48 74.2408 243.88 74.0755 239.7 76.5918C239.64 77.6571 239.58 78.7408 239.52 79.8061C239.48 80.449 239.46 81.1286 239.7 81.7347C240.1 82.7449 241.14 83.3877 242.14 83.9204C243.82 84.802 245.6 85.5184 247.38 86.2347C249.36 87.0245 251.36 87.8327 253.5 88.1082C253.52 88.1082 253.54 88.1082 253.56 88.1082C253.68 88.0163 253.82 87.8878 253.94 87.7408Z" fill="#A3B6C1"/>
<path d="M237.64 67.2612C237.5 68.8224 237.72 70.3837 237.68 71.9449C237.66 73.102 237.48 74.2592 237.6 75.4163C237.76 76.7939 238.32 78.1163 238.94 79.3837C239.2 79.898 239.46 80.449 239.98 80.8163C240.54 81.2204 241.3 81.349 242.04 81.4408C245.62 81.8449 249.34 81.3673 252.64 80.1C253.1 79.9163 253.58 79.7143 253.84 79.3286C254.16 78.8694 254.06 78.3 253.96 77.7857C253.64 76.0408 253.3 74.2959 252.94 72.551C252.56 70.6775 252.18 68.7857 251.22 67.0592C250.72 66.1408 250.02 65.2592 249.02 64.7082C248.26 64.3041 247.36 64.102 246.48 63.9551C244.72 63.6429 241.86 62.8347 240.04 63.2755C238.22 63.7347 237.78 65.8469 237.64 67.2612Z" fill="#BFD1DD"/>
<path d="M255.22 82.5245C253.82 83.4612 252.02 83.8653 250.3 83.6449C249.12 83.4979 248 83.0571 246.84 82.7816C245.7 82.5061 244.5 82.4143 243.32 82.3592C242.08 82.3041 240.66 82.2122 239.94 81.3122C239.12 80.302 239.94 78.9979 240.66 77.9143C239.6 76.6469 239.9 74.6816 240.96 73.4326C240.16 73.0469 239.6 72.2755 239.52 71.449C239.42 70.2918 240.18 68.951 240.92 68.0143C239.44 67.702 238.3 66.3796 238.28 64.9836C238.28 64.3775 238.46 63.7898 238.72 63.2388C239 62.6326 239.36 62.0265 239.92 61.6041C240.44 61.2 241.1 60.9979 241.74 60.7959C244.82 59.8041 247.9 58.8306 250.98 57.8388C252.64 57.3061 254.44 58.8306 255.08 60.3367C255.7 61.8428 255.66 63.5143 256.08 65.0755C256.32 65.9939 256.72 66.8571 256.94 67.7755C257.2 68.8775 257.2 70.0163 257.18 71.1367C257.14 75.049 258.68 80.2285 255.22 82.5245Z" fill="#BFD1DD"/>
<path d="M140.94 99.8449C141.94 100.892 142.72 102.086 143.42 103.316C143.8 103.959 144.14 104.62 144.42 105.3C144.92 106.567 145.1 107.927 144.96 109.267C143.66 109.286 142.38 109.249 141.08 109.175C140.66 109.157 140.2 109.102 139.94 108.79C139.76 108.569 139.74 108.275 139.72 108C139.62 105.722 139.38 103.427 139 101.167C138.92 100.671 138.2 98.6143 138.76 98.3571C139.4 98.0816 140.6 99.4775 140.94 99.8449Z" fill="#A3B6C1"/>
<path d="M143.42 103.316C142.72 102.086 141.94 100.873 140.94 99.8449C140.6 99.4775 139.4 98.0816 138.78 98.3755C138.66 98.4306 138.6 98.5592 138.58 98.7428C139.1 99.2755 139.64 99.8265 140.14 100.378C142.06 102.49 143.68 104.822 144.92 107.32C144.82 106.641 144.66 105.961 144.4 105.3C144.16 104.62 143.8 103.959 143.42 103.316Z" fill="white"/>
<path d="M140.5 106.769C140.34 106.733 140.14 106.714 140.02 106.824L140.2 111.324C141.08 111.618 141.98 111.894 142.86 112.188C143.26 112.316 143.66 112.463 144.06 112.61C145.62 113.18 147.36 112.316 147.68 110.792C147.68 110.773 147.68 110.755 147.7 110.737C147.96 109.469 147.1 108.22 145.72 107.89C144 107.504 142.26 107.118 140.5 106.769Z" fill="#866549"/>
<path d="M126.48 95.0327C125.4 94.6837 124.18 94.8673 123.16 95.3633C122.14 95.8592 121.32 96.6306 120.62 97.4388C119.9 98.2653 119.26 99.1653 119 100.194C118.7 101.333 118.88 102.508 119.06 103.665C119.46 106.237 119.88 108.863 121.32 111.104C121.46 111.324 121.62 111.545 121.84 111.71C122.68 112.316 123.9 111.765 124.8 111.196C124.88 111.765 124.98 112.169 125.24 112.684C125.52 113.198 126 113.639 126.62 113.731C127.2 113.822 127.78 113.565 128.32 113.327C128.72 114.006 129.56 114.245 130.38 114.41C131.2 114.557 132.1 114.373 132.76 113.878C133.1 114.741 134.12 115.476 135.08 115.678C136.04 115.88 137.12 115.622 137.84 114.98C138.52 115.512 139.38 116.173 140.26 116.229C141.16 116.284 142.1 115.88 142.46 115.127C142.72 114.594 142.66 113.988 142.58 113.4C142.24 110.59 141.88 107.761 141.54 104.951C141.34 103.28 141.12 101.571 140.48 99.9918C140.14 99.1653 139.68 98.3571 138.98 97.751C137.42 96.3735 135.08 96.1531 132.92 96.098C130.8 96.0429 128.52 95.7122 126.48 95.0327Z" fill="#BFD1DD"/>
<path d="M158.06 122.602C156.66 123.208 155.02 123.373 153.52 123.043C152.96 122.914 152.42 122.731 151.96 122.418C150.86 121.702 150.38 120.435 150.16 119.204C149.94 117.992 149.94 116.724 149.54 115.549C148.96 113.822 147.5 112.224 145.68 111.508C145.22 111.324 144.98 110.865 145.14 110.424C145.14 110.406 145.16 110.388 145.16 110.369C145.32 109.91 145.86 109.653 146.36 109.8C148.2 110.314 150.04 111.049 150.88 112.592C151.76 114.208 151.2 116.21 151.9 117.9C152.58 119.571 154.54 120.71 156.48 120.582C157.02 121.28 157.5 121.886 158.06 122.602Z" fill="#A3B6C1"/>
<path d="M154.56 124.788C153.8 124.163 153.78 123.043 154.22 122.198C154.66 121.353 155.5 120.765 156.3 120.178C164.02 114.667 172.24 109.763 180.86 105.539C181.3 105.943 180.78 106.494 180.48 107.008C178.24 110.792 175.82 114.484 173.22 118.065C171.76 120.067 170.18 122.106 167.92 123.355C165.72 124.567 163.12 124.898 160.58 125.21C158.7 125.467 156.02 125.963 154.56 124.788Z" fill="#BFD1DD"/>
<path d="M178.52 63.551C181.68 62.4122 184.54 60.7408 187.24 58.849C186.8 56.3694 186.58 53.8347 186.58 53.8347L184.92 55.9285C184.9 55.2306 184.84 54.5326 184.74 53.8347C183.42 53.1734 181.28 52.8612 179.8 52.7143C178.78 52.6224 177.74 52.7694 176.72 52.9347C169.58 54.0367 162.36 55.5245 155.98 58.6285C155.58 57.3061 154.74 55.1204 154.24 57.6551C153.88 59.4551 154.28 62.2836 154.74 64.5428C154.38 64.451 154.1 64.5979 153.94 65.2041C153.78 65.8102 153.82 66.4347 153.98 67.0408C158.68 66.7653 163.38 66.3428 168.06 65.7551C171.62 65.2775 175.18 64.7449 178.52 63.551Z" fill="#BFD1DD"/>
<path d="M190.46 58.7939C190.22 58.2612 188.98 57.2326 188.92 56.6816C188.4 52.6224 187.66 48.453 185.34 44.9816C183.02 41.4918 178.72 38.5531 174.3 39.0306C174.1 38.7 173.9 38.5163 173.7 38.1857C170.42 37.7633 166.92 37.8551 163.76 38.7551C163.54 39.0857 163.38 39.5633 163.16 39.8755C159.02 40.7388 155.72 43.8796 154.12 47.4796C152.52 51.0796 152.36 55.1204 152.82 59.0143C152.92 59.9326 152.08 60.6857 151.7 61.549C160.84 63.4775 170.72 64.5979 179.56 61.751C182.84 60.6857 186.98 58.6653 190.46 58.7939Z" fill="#FCAE16"/>
<path d="M172.32 50.6939C172.32 50.6939 172.32 41.4735 174.32 39.0122C174.12 38.6816 173.92 38.498 173.72 38.1673C173.7 38.1673 171.12 43.0163 172.32 50.6939Z" fill="#D3710F"/>
<path d="M181.48 57.7102C177.36 59.2163 166.56 61.5306 163.44 58.5367C159.92 55.1755 163.16 39.8571 163.16 39.8571C159.02 40.7204 155.72 43.8612 154.12 47.4612C152.52 51.0612 152.36 55.102 152.82 58.9959C152.86 59.3265 152.78 59.6204 152.64 59.9327C167.66 63 181.48 57.7102 181.48 57.7102Z" fill="#D3710F"/>
<path d="M168.5 76.5735C167.18 76.2796 165.8 76.1694 164.44 76.2061C164.64 76.6837 164.86 77.1612 165.08 77.6388C166.94 78.0979 168.9 77.9143 170.8 77.5653C172.36 77.2714 173.86 76.7939 175.32 76.2061L175.36 74.8469C173.04 75.2694 170.74 75.8204 168.5 76.5735Z" fill="white"/>
<path d="M242.34 78.7776C246.08 78.998 249.86 78.7041 253.5 77.9143C249.6 78.1531 245.68 78.1163 241.78 77.8041C242 76.4816 242.22 75.1776 242.46 73.8551C245.8 73.598 249.1 72.9735 252.28 72C249.88 72.2939 247.48 72.5878 245.06 72.8816C244.02 73.0102 242.8 73.102 242.04 72.4224C241.38 71.8347 241.32 70.898 241.3 70.0531C241.28 69.4653 241.3 68.8225 241.68 68.3449C242.02 67.9225 242.6 67.7204 243.16 67.5367C246.24 66.5449 249.34 65.5347 252.42 64.5429C249 65.3878 245.54 66.0122 242.04 66.4347C241.66 66.4714 241.24 66.5265 240.9 66.3612C240.54 66.2143 240.32 65.902 240.14 65.5898C239.52 64.5429 239.26 63.3306 239.36 62.1367C239.1 62.4673 238.88 62.8531 238.7 63.2388C238.46 63.7898 238.26 64.3776 238.26 64.9837C238.26 66.3796 239.42 67.702 240.9 68.0143C240.16 68.951 239.4 70.2918 239.5 71.449C239.58 72.2755 240.14 73.0469 240.94 73.4327C239.88 74.7 239.6 76.6653 240.64 77.9143C239.94 78.998 239.12 80.2837 239.92 81.3123C240.42 81.9367 241.26 82.1755 242.12 82.2857C242 82.0469 241.88 81.7898 241.8 81.5327C241.52 80.5959 241.62 79.4939 242.34 78.7776Z" fill="#A3B6C1"/>
<path d="M125.04 105.465C124.72 106.09 124.5 106.733 124.38 107.412C123 103.39 124.42 98.6877 127.86 95.8959C125.64 96.502 124.08 98.3939 123.38 100.414C122.68 102.435 122.7 104.602 122.74 106.733C121.9 104.988 121.66 103.004 122.08 101.131C120.62 104.584 121.76 108.404 123.14 111.931C123.66 111.82 124.2 111.563 124.66 111.269C124.56 109.322 124.68 107.376 125.04 105.465Z" fill="#A3B6C1"/>
<path d="M257.16 71.1183C257.16 69.9979 257.18 68.8592 256.92 67.7571C256.7 66.8387 256.3 65.9571 256.06 65.0571C255.64 63.4959 255.7 61.8245 255.06 60.3183C254.42 58.8122 252.62 57.3061 250.96 57.8204C247.88 58.8122 244.8 59.7857 241.72 60.7775C241.08 60.9796 240.42 61.2 239.9 61.5857C239.74 61.7143 239.58 61.8428 239.46 62.0081C241.92 60.9979 244.58 60.3551 247.2 59.7122C249.28 59.1979 251.86 58.8306 253.26 60.3183C253.84 60.9428 254.08 61.7694 254.3 62.5775C254.66 63.9367 255.04 65.2775 255.4 66.6367C255.62 67.4265 255.82 68.2163 255.92 69.0061C256.06 70.3285 255.86 71.651 255.88 72.9551C255.92 74.6081 256.3 76.2428 256.32 77.8959C256.34 79.549 255.94 81.3122 254.64 82.4694C254.1 82.9469 253.44 83.2959 252.72 83.553C253.62 83.3694 254.48 83.0204 255.22 82.5245C258.68 80.2285 257.14 75.049 257.16 71.1183Z" fill="white"/>
<path d="M142.62 113.382C142.28 110.571 141.92 107.743 141.58 104.933C141.38 103.261 141.16 101.553 140.52 99.9735C140.18 99.1469 139.72 98.3388 139.02 97.7326C137.46 96.3551 135.12 96.1347 132.96 96.0796C130.8 96.0428 128.52 95.6939 126.48 95.0327C125.4 94.6837 124.18 94.8673 123.16 95.3633C122.28 95.8041 121.52 96.4469 120.88 97.1449C121.04 97.0163 121.22 96.8878 121.4 96.7776C122.56 96.0612 124.06 95.8041 125.44 96.0796C123.62 96.8694 122.64 98.9816 123.26 100.727C123.76 99.5327 124.48 98.4122 125.38 97.4204C125.72 97.0347 126.12 96.649 126.62 96.4653C127.7 96.0612 128.88 96.6673 130 96.9612C132.22 97.5673 134.68 97.0714 136.88 97.751C138.78 98.3388 139.5 99.8816 140.02 101.663C140.4 102.949 141.92 110.663 142.2 113.216C142.28 113.933 142.32 114.667 142.3 115.384C142.38 115.292 142.44 115.2 142.48 115.09C142.76 114.575 142.68 113.969 142.62 113.382Z" fill="white"/>
<path d="M196.8 82.3592C194.4 82.1571 191.8 81.8632 189.58 81C189.58 81.1836 189.58 81.3489 189.6 81.5326C190.86 82.2489 192.48 82.5979 193.96 82.9653C194.36 83.0571 194.78 83.1857 195 83.4979C195.16 83.7367 195.18 84.049 195.18 84.3428C195.18 92.3143 195.18 100.286 195.16 108.257C195.16 108.827 195.16 109.433 194.86 109.947C194.56 110.48 194.02 110.847 193.44 111.104C193.18 111.214 192.92 111.306 192.66 111.398C192.92 111.527 193.2 111.618 193.5 111.673C195.24 111.967 196.82 110.7 196.74 109.084C196.36 100.157 196.52 91.2857 196.8 82.3592Z" fill="white"/>
<path d="M149.72 84.3612C150.24 87.8326 150.76 91.2857 151.3 94.7571C151.04 90.9551 150.98 87.153 151.18 83.1306C149.42 83.5531 147.7 83.8653 145.88 83.9388C145.86 84.0673 145.86 84.1959 145.86 84.3245C147.12 84.5449 148.44 84.5633 149.72 84.3612Z" fill="white"/>
<path d="M177.58 41.1979C177.34 41.0694 177.1 41.0143 176.84 41.0694C176.72 41.1061 176.6 41.1612 176.48 41.2163C175.98 41.4367 175.98 42.2265 176.48 42.4469C176.6 42.502 176.72 42.5571 176.84 42.5939C177.06 42.6306 177.28 42.6122 177.5 42.5204C177.54 42.502 177.56 42.4837 177.58 42.4653C178.1 42.1714 178.1 41.4735 177.58 41.1979Z" fill="white"/>
<path d="M186.38 52.4939C186 50.5102 185.44 48.453 184.3 46.7265C183.88 46.0836 183.42 45.4775 182.82 44.9632C182.5 44.6877 182.14 44.4122 181.76 44.2102C181.58 44.1183 181.02 44.0081 180.9 43.8612C180.68 43.5857 180.16 43.7326 180.26 44.1C180.64 45.349 181.66 46.2857 182.22 47.4612C182.98 49.0775 183.78 51.0428 183.58 52.8428C183.38 54.5877 186.76 54.5143 186.38 52.4939Z" fill="white"/>
<path d="M164.4 66.3612C164.38 66.2878 164.34 66.2327 164.26 66.1959C164.16 66.1592 164.08 66.1592 164 66.1775C163.88 66.1408 163.72 66.1775 163.68 66.2878C163.68 66.2878 163.68 66.3061 163.66 66.3061C163.56 66.4714 163.68 66.6918 163.9 66.6918C163.94 66.6918 163.98 66.6918 164 66.6735C164.08 66.7102 164.16 66.7102 164.26 66.6551C164.38 66.6 164.42 66.4714 164.4 66.3612Z" fill="white"/>
<path d="M174.12 65.3694C173.9 65.2775 173.68 65.3694 173.56 65.5347C173.56 65.5347 173.56 65.5347 173.56 65.553C173.48 65.6633 173.48 65.8469 173.56 65.9571C173.56 65.9571 173.56 65.9571 173.56 65.9755C173.68 66.1225 173.86 66.2143 174.06 66.1592C174.24 66.1041 174.4 65.9388 174.4 65.7551C174.4 65.5898 174.3 65.4428 174.12 65.3694Z" fill="white"/>
<path d="M165.38 72.0551C165.1 72.1286 165.06 72.4959 165.24 72.6796C165.34 72.7714 165.5 72.7347 165.56 72.6428C165.6 72.5877 165.6 72.5326 165.62 72.4775C165.62 72.4592 165.62 72.4408 165.64 72.4224C165.64 72.4224 165.68 72.3673 165.68 72.349C165.74 72.1653 165.56 72.0184 165.38 72.0551Z" fill="white"/>
<path d="M166.9 68.602C166.62 68.8959 166.56 69.3735 166.42 69.7224C166.26 70.1265 166.02 70.6959 166.04 71.1184C166.04 71.1735 166.14 71.1918 166.16 71.1367C166.2 70.9531 166.34 70.7878 166.42 70.6225C166.54 70.3653 166.64 70.0898 166.74 69.8326C166.88 69.4469 166.86 69.0245 167.02 68.6571C167.04 68.602 166.94 68.5469 166.9 68.602Z" fill="white"/>
<path d="M267.96 175.096C265.74 174.435 262.8 175.078 261.52 173.222C260.86 172.267 261 171.018 260.86 169.88C260.54 167.235 258.4 164.865 255.7 164.167C254.54 163.873 253.18 163.8 252.42 162.918C251.88 162.294 251.78 161.431 251.5 160.678C249.64 155.755 241.4 156.986 237.64 153.165C235.4 150.888 234.94 146.957 231.9 145.818C230.4 145.267 228.38 145.433 227.56 144.11C227.08 143.357 219.76 142.402 219.78 141.52C219.86 139.463 219 137.645 218.2 135.735C217.2 133.347 214.74 132.429 212.04 132.429H-6.19995V187.218L272.68 185.62C272.76 181.506 272.06 176.308 267.96 175.096Z" fill="#564134"/>
<path d="M21.3401 143.063H-0.799932C-2.37993 143.063 -3.67993 141.888 -3.67993 140.418V137.663C-3.67993 136.212 -2.39993 135.018 -0.799932 135.018H21.3601C22.9401 135.018 24.2401 136.194 24.2401 137.663V140.418C24.2201 141.888 22.9401 143.063 21.3401 143.063Z" fill="#5D341A"/>
<path d="M52.84 143.063H30.68C29.1 143.063 27.8 141.888 27.8 140.418V137.663C27.8 136.212 29.08 135.018 30.68 135.018H52.84C54.42 135.018 55.72 136.194 55.72 137.663V140.418C55.72 141.888 54.42 143.063 52.84 143.063Z" fill="#904216"/>
<path d="M84.32 143.063H62.18C60.6 143.063 59.3 141.888 59.3 140.418V137.663C59.3 136.212 60.58 135.018 62.18 135.018H84.34C85.92 135.018 87.22 136.194 87.22 137.663V140.418C87.2 141.888 85.92 143.063 84.32 143.063Z" fill="#882908"/>
<path d="M115.82 143.063H93.66C92.08 143.063 90.78 141.888 90.78 140.418V137.663C90.78 136.212 92.06 135.018 93.66 135.018H115.82C117.4 135.018 118.7 136.194 118.7 137.663V140.418C118.68 141.888 117.4 143.063 115.82 143.063Z" fill="#39130D"/>
<path d="M147.3 143.063H125.14C123.56 143.063 122.26 141.888 122.26 140.418V137.663C122.26 136.212 123.54 135.018 125.14 135.018H147.3C148.88 135.018 150.18 136.194 150.18 137.663V140.418C150.18 141.888 148.88 143.063 147.3 143.063Z" fill="#882908"/>
<path d="M178.78 143.063H156.64C155.06 143.063 153.76 141.888 153.76 140.418V137.663C153.76 136.212 155.04 135.018 156.64 135.018H178.8C180.38 135.018 181.68 136.194 181.68 137.663V140.418C181.66 141.888 180.38 143.063 178.78 143.063Z" fill="#904216"/>
<path d="M210.28 143.063H188.12C186.54 143.063 185.24 141.888 185.24 140.418V137.663C185.24 136.212 186.52 135.018 188.12 135.018H210.28C211.86 135.018 213.16 136.194 213.16 137.663V140.418C213.14 141.888 211.86 143.063 210.28 143.063Z" fill="#904216"/>
<path d="M6.60006 152.596H-15.5599C-17.1399 152.596 -18.4399 151.42 -18.4399 149.951V147.196C-18.4399 145.745 -17.1599 144.551 -15.5599 144.551H6.60006C8.18006 144.551 9.48007 145.727 9.48007 147.196V149.951C9.46007 151.42 8.18006 152.596 6.60006 152.596Z" fill="#904216"/>
<path d="M38.08 152.596H15.92C14.34 152.596 13.04 151.42 13.04 149.951V147.196C13.04 145.745 14.32 144.551 15.92 144.551H38.08C39.66 144.551 40.96 145.727 40.96 147.196V149.951C40.96 151.42 39.66 152.596 38.08 152.596Z" fill="#882908"/>
<path d="M69.5601 152.596H47.42C45.84 152.596 44.54 151.42 44.54 149.951V147.196C44.54 145.745 45.82 144.551 47.42 144.551H69.5801C71.1601 144.551 72.4601 145.727 72.4601 147.196V149.951C72.4401 151.42 71.1601 152.596 69.5601 152.596Z" fill="#904216"/>
<path d="M101.06 152.596H78.9C77.32 152.596 76.02 151.42 76.02 149.951V147.196C76.02 145.745 77.3 144.551 78.9 144.551H101.06C102.64 144.551 103.94 145.727 103.94 147.196V149.951C103.92 151.42 102.64 152.596 101.06 152.596Z" fill="#882908"/>
<path d="M132.54 152.596H110.38C108.8 152.596 107.5 151.42 107.5 149.951V147.196C107.5 145.745 108.78 144.551 110.38 144.551H132.54C134.12 144.551 135.42 145.727 135.42 147.196V149.951C135.42 151.42 134.12 152.596 132.54 152.596Z" fill="#904216"/>
<path d="M164.02 152.596H141.88C140.3 152.596 139 151.42 139 149.951V147.196C139 145.745 140.28 144.551 141.88 144.551H164.04C165.62 144.551 166.92 145.727 166.92 147.196V149.951C166.9 151.42 165.62 152.596 164.02 152.596Z" fill="#904216"/>
<path d="M195.52 152.596H173.36C171.78 152.596 170.48 151.42 170.48 149.951V147.196C170.48 145.745 171.76 144.551 173.36 144.551H195.52C197.1 144.551 198.4 145.727 198.4 147.196V149.951C198.38 151.42 197.1 152.596 195.52 152.596Z" fill="#882908"/>
<path d="M227 152.596H204.84C203.26 152.596 201.96 151.42 201.96 149.951V147.196C201.96 145.745 203.24 144.551 204.84 144.551H227C228.58 144.551 229.88 145.727 229.88 147.196V149.951C229.88 151.42 228.58 152.596 227 152.596Z" fill="#904216"/>
<path d="M21.3401 162.624H-0.799932C-2.37993 162.624 -3.67993 161.449 -3.67993 159.98V157.224C-3.67993 155.773 -2.39993 154.58 -0.799932 154.58H21.3601C22.9401 154.58 24.2401 155.755 24.2401 157.224V159.98C24.2201 161.431 22.9401 162.624 21.3401 162.624Z" fill="#882908"/>
<path d="M52.84 162.624H30.68C29.1 162.624 27.8 161.449 27.8 159.98V157.224C27.8 155.773 29.08 154.58 30.68 154.58H52.84C54.42 154.58 55.72 155.755 55.72 157.224V159.98C55.72 161.431 54.42 162.624 52.84 162.624Z" fill="#882908"/>
<path d="M84.32 162.624H62.18C60.6 162.624 59.3 161.449 59.3 159.98V157.224C59.3 155.773 60.58 154.58 62.18 154.58H84.34C85.92 154.58 87.22 155.755 87.22 157.224V159.98C87.2 161.431 85.92 162.624 84.32 162.624Z" fill="#39130D"/>
<path d="M115.82 162.624H93.66C92.08 162.624 90.78 161.449 90.78 159.98V157.224C90.78 155.773 92.06 154.58 93.66 154.58H115.82C117.4 154.58 118.7 155.755 118.7 157.224V159.98C118.68 161.431 117.4 162.624 115.82 162.624Z" fill="#5D341A"/>
<path d="M147.3 162.624H125.14C123.56 162.624 122.26 161.449 122.26 159.98V157.224C122.26 155.773 123.54 154.58 125.14 154.58H147.3C148.88 154.58 150.18 155.755 150.18 157.224V159.98C150.18 161.431 148.88 162.624 147.3 162.624Z" fill="#882908"/>
<path d="M178.78 162.624H156.64C155.06 162.624 153.76 161.449 153.76 159.98V157.224C153.76 155.773 155.04 154.58 156.64 154.58H178.8C180.38 154.58 181.68 155.755 181.68 157.224V159.98C181.66 161.431 180.38 162.624 178.78 162.624Z" fill="#39130D"/>
<path d="M210.28 162.624H188.12C186.54 162.624 185.24 161.449 185.24 159.98V157.224C185.24 155.773 186.52 154.58 188.12 154.58H210.28C211.86 154.58 213.16 155.755 213.16 157.224V159.98C213.14 161.431 211.86 162.624 210.28 162.624Z" fill="#882908"/>
<path d="M240.94 162.624H218.8C217.22 162.624 215.92 161.449 215.92 159.98V157.224C215.92 155.773 217.2 154.58 218.8 154.58H240.96C242.54 154.58 243.84 155.755 243.84 157.224V159.98C243.82 161.431 242.54 162.624 240.94 162.624Z" fill="#882908"/>
<path d="M6.60006 172.157H-15.5599C-17.1399 172.157 -18.4399 170.982 -18.4399 169.512V166.757C-18.4399 165.306 -17.1599 164.112 -15.5599 164.112H6.60006C8.18006 164.112 9.48007 165.288 9.48007 166.757V169.512C9.46007 170.982 8.18006 172.157 6.60006 172.157Z" fill="#904216"/>
<path d="M38.08 172.157H15.92C14.34 172.157 13.04 170.982 13.04 169.512V166.757C13.04 165.306 14.32 164.112 15.92 164.112H38.08C39.66 164.112 40.96 165.288 40.96 166.757V169.512C40.96 170.982 39.66 172.157 38.08 172.157Z" fill="#882908"/>
<path d="M69.5601 172.157H47.42C45.84 172.157 44.54 170.982 44.54 169.512V166.757C44.54 165.306 45.82 164.112 47.42 164.112H69.5801C71.1601 164.112 72.4601 165.288 72.4601 166.757V169.512C72.4401 170.982 71.1601 172.157 69.5601 172.157Z" fill="#5D341A"/>
<path d="M101.06 172.157H78.9C77.32 172.157 76.02 170.982 76.02 169.512V166.757C76.02 165.306 77.3 164.112 78.9 164.112H101.06C102.64 164.112 103.94 165.288 103.94 166.757V169.512C103.92 170.982 102.64 172.157 101.06 172.157Z" fill="#904216"/>
<path d="M132.54 172.157H110.38C108.8 172.157 107.5 170.982 107.5 169.512V166.757C107.5 165.306 108.78 164.112 110.38 164.112H132.54C134.12 164.112 135.42 165.288 135.42 166.757V169.512C135.42 170.982 134.12 172.157 132.54 172.157Z" fill="#882908"/>
<path d="M164.02 172.157H141.88C140.3 172.157 139 170.982 139 169.512V166.757C139 165.306 140.28 164.112 141.88 164.112H164.04C165.62 164.112 166.92 165.288 166.92 166.757V169.512C166.9 170.982 165.62 172.157 164.02 172.157Z" fill="#904216"/>
<path d="M195.52 172.157H173.36C171.78 172.157 170.48 170.982 170.48 169.512V166.757C170.48 165.306 171.76 164.112 173.36 164.112H195.52C197.1 164.112 198.4 165.288 198.4 166.757V169.512C198.38 170.982 197.1 172.157 195.52 172.157Z" fill="#5D341A"/>
<path d="M227 172.157H204.84C203.26 172.157 201.96 170.982 201.96 169.512V166.757C201.96 165.306 203.24 164.112 204.84 164.112H227C228.58 164.112 229.88 165.288 229.88 166.757V169.512C229.88 170.982 228.58 172.157 227 172.157Z" fill="#882908"/>
<path d="M257.14 172.157H235C233.42 172.157 232.12 170.982 232.12 169.512V166.757C232.12 165.306 233.4 164.112 235 164.112H257.16C258.74 164.112 260.04 165.288 260.04 166.757V169.512C260.02 170.982 258.72 172.157 257.14 172.157Z" fill="#904216"/>
<path d="M21.3401 182.186H-0.799932C-2.37993 182.186 -3.67993 181.01 -3.67993 179.541V176.786C-3.67993 175.335 -2.39993 174.141 -0.799932 174.141H21.3601C22.9401 174.141 24.2401 175.316 24.2401 176.786V179.541C24.2201 180.992 22.9401 182.186 21.3401 182.186Z" fill="#39130D"/>
<path d="M52.84 182.186H30.68C29.1 182.186 27.8 181.01 27.8 179.541V176.786C27.8 175.335 29.08 174.141 30.68 174.141H52.84C54.42 174.141 55.72 175.316 55.72 176.786V179.541C55.72 180.992 54.42 182.186 52.84 182.186Z" fill="#882908"/>
<path d="M84.32 182.186H62.18C60.6 182.186 59.3 181.01 59.3 179.541V176.786C59.3 175.335 60.58 174.141 62.18 174.141H84.34C85.92 174.141 87.22 175.316 87.22 176.786V179.541C87.2 180.992 85.92 182.186 84.32 182.186Z" fill="#904216"/>
<path d="M115.82 182.186H93.66C92.08 182.186 90.78 181.01 90.78 179.541V176.786C90.78 175.335 92.06 174.141 93.66 174.141H115.82C117.4 174.141 118.7 175.316 118.7 176.786V179.541C118.68 180.992 117.4 182.186 115.82 182.186Z" fill="#39130D"/>
<path d="M147.3 182.186H125.14C123.56 182.186 122.26 181.01 122.26 179.541V176.786C122.26 175.335 123.54 174.141 125.14 174.141H147.3C148.88 174.141 150.18 175.316 150.18 176.786V179.541C150.18 180.992 148.88 182.186 147.3 182.186Z" fill="#882908"/>
<path d="M178.78 182.186H156.64C155.06 182.186 153.76 181.01 153.76 179.541V176.786C153.76 175.335 155.04 174.141 156.64 174.141H178.8C180.38 174.141 181.68 175.316 181.68 176.786V179.541C181.66 180.992 180.38 182.186 178.78 182.186Z" fill="#39130D"/>
<path d="M210.28 182.186H188.12C186.54 182.186 185.24 181.01 185.24 179.541V176.786C185.24 175.335 186.52 174.141 188.12 174.141H210.28C211.86 174.141 213.16 175.316 213.16 176.786V179.541C213.14 180.992 211.86 182.186 210.28 182.186Z" fill="#904216"/>
<path d="M240.94 182.186H218.8C217.22 182.186 215.92 181.01 215.92 179.541V176.786C215.92 175.335 217.2 174.141 218.8 174.141H240.96C242.54 174.141 243.84 175.316 243.84 176.786V179.541C243.82 180.992 242.54 182.186 240.94 182.186Z" fill="#39130D"/>
<path d="M271.62 182.186H249.46C247.88 182.186 246.58 181.01 246.58 179.541V176.786C246.58 175.335 247.86 174.141 249.46 174.141H271.62C273.2 174.141 274.5 175.316 274.5 176.786V179.541C274.5 180.992 273.22 182.186 271.62 182.186Z" fill="#904216"/>
<path d="M22.28 142.016H0.14001C-1.43999 142.016 -2.73999 140.841 -2.73999 139.371V136.616C-2.73999 135.165 -1.45999 133.971 0.14001 133.971H22.3C23.88 133.971 25.18 135.147 25.18 136.616V139.371C25.16 140.841 23.88 142.016 22.28 142.016Z" fill="#B7754D"/>
<path d="M53.78 142.016H31.62C30.04 142.016 28.74 140.841 28.74 139.371V136.616C28.74 135.165 30.02 133.971 31.62 133.971H53.78C55.36 133.971 56.66 135.147 56.66 136.616V139.371C56.64 140.841 55.36 142.016 53.78 142.016Z" fill="#EA8044"/>
<path d="M85.26 142.016H63.1C61.52 142.016 60.22 140.841 60.22 139.371V136.616C60.22 135.165 61.5 133.971 63.1 133.971H85.26C86.84 133.971 88.14 135.147 88.14 136.616V139.371C88.14 140.841 86.84 142.016 85.26 142.016Z" fill="#E25C2D"/>
<path d="M116.74 142.016H94.6C93.02 142.016 91.72 140.841 91.72 139.371V136.616C91.72 135.165 93 133.971 94.6 133.971H116.76C118.34 133.971 119.64 135.147 119.64 136.616V139.371C119.62 140.841 118.34 142.016 116.74 142.016Z" fill="#934235"/>
<path d="M148.24 142.016H126.08C124.5 142.016 123.2 140.841 123.2 139.371V136.616C123.2 135.165 124.48 133.971 126.08 133.971H148.24C149.82 133.971 151.12 135.147 151.12 136.616V139.371C151.1 140.841 149.82 142.016 148.24 142.016Z" fill="#E25C2D"/>
<path d="M179.72 142.016H157.56C155.98 142.016 154.68 140.841 154.68 139.371V136.616C154.68 135.165 155.96 133.971 157.56 133.971H179.72C181.3 133.971 182.6 135.147 182.6 136.616V139.371C182.6 140.841 181.3 142.016 179.72 142.016Z" fill="#EA8044"/>
<path d="M211.2 142.016H189.06C187.48 142.016 186.18 140.841 186.18 139.371V136.616C186.18 135.165 187.46 133.971 189.06 133.971H211.2C212.78 133.971 214.08 135.147 214.08 136.616V139.371C214.08 140.841 212.8 142.016 211.2 142.016Z" fill="#EA8044"/>
<path d="M7.52 151.549H-14.62C-16.2 151.549 -17.5 150.373 -17.5 148.904V146.149C-17.5 144.698 -16.22 143.504 -14.62 143.504H7.52C9.1 143.504 10.4 144.68 10.4 146.149V148.904C10.4 150.373 9.12 151.549 7.52 151.549Z" fill="#EA8044"/>
<path d="M39.02 151.549H16.86C15.28 151.549 13.98 150.373 13.98 148.904V146.149C13.98 144.698 15.26 143.504 16.86 143.504H39.02C40.6 143.504 41.9 144.68 41.9 146.149V148.904C41.88 150.373 40.6 151.549 39.02 151.549Z" fill="#E25C2D"/>
<path d="M70.4999 151.549H48.34C46.76 151.549 45.46 150.373 45.46 148.904V146.149C45.46 144.698 46.74 143.504 48.34 143.504H70.4999C72.0799 143.504 73.3799 144.68 73.3799 146.149V148.904C73.3799 150.373 72.0799 151.549 70.4999 151.549Z" fill="#EA8044"/>
<path d="M101.98 151.549H79.84C78.26 151.549 76.96 150.373 76.96 148.904V146.149C76.96 144.698 78.24 143.504 79.84 143.504H102C103.58 143.504 104.88 144.68 104.88 146.149V148.904C104.86 150.373 103.58 151.549 101.98 151.549Z" fill="#E25C2D"/>
<path d="M133.48 151.549H111.32C109.74 151.549 108.44 150.373 108.44 148.904V146.149C108.44 144.698 109.72 143.504 111.32 143.504H133.48C135.06 143.504 136.36 144.68 136.36 146.149V148.904C136.34 150.373 135.06 151.549 133.48 151.549Z" fill="#EA8044"/>
<path d="M164.96 151.549H142.8C141.22 151.549 139.92 150.373 139.92 148.904V146.149C139.92 144.698 141.2 143.504 142.8 143.504H164.96C166.54 143.504 167.84 144.68 167.84 146.149V148.904C167.84 150.373 166.54 151.549 164.96 151.549Z" fill="#EA8044"/>
<path d="M196.44 151.549H174.3C172.72 151.549 171.42 150.373 171.42 148.904V146.149C171.42 144.698 172.7 143.504 174.3 143.504H196.46C198.04 143.504 199.34 144.68 199.34 146.149V148.904C199.32 150.373 198.04 151.549 196.44 151.549Z" fill="#E25C2D"/>
<path d="M227.94 151.549H205.78C204.2 151.549 202.9 150.373 202.9 148.904V146.149C202.9 144.698 204.18 143.504 205.78 143.504H227.94C229.52 143.504 230.82 144.68 230.82 146.149V148.904C230.8 150.373 229.52 151.549 227.94 151.549Z" fill="#EA8044"/>
<path d="M22.28 161.578H0.14001C-1.43999 161.578 -2.73999 160.402 -2.73999 158.933V156.178C-2.73999 154.727 -1.45999 153.533 0.14001 153.533H22.3C23.88 153.533 25.18 154.708 25.18 156.178V158.933C25.16 160.402 23.88 161.578 22.28 161.578Z" fill="#E25C2D"/>
<path d="M53.78 161.578H31.62C30.04 161.578 28.74 160.402 28.74 158.933V156.178C28.74 154.727 30.02 153.533 31.62 153.533H53.78C55.36 153.533 56.66 154.708 56.66 156.178V158.933C56.64 160.402 55.36 161.578 53.78 161.578Z" fill="#E25C2D"/>
<path d="M85.26 161.578H63.1C61.52 161.578 60.22 160.402 60.22 158.933V156.178C60.22 154.727 61.5 153.533 63.1 153.533H85.26C86.84 153.533 88.14 154.708 88.14 156.178V158.933C88.14 160.402 86.84 161.578 85.26 161.578Z" fill="#934235"/>
<path d="M116.74 161.578H94.6C93.02 161.578 91.72 160.402 91.72 158.933V156.178C91.72 154.727 93 153.533 94.6 153.533H116.76C118.34 153.533 119.64 154.708 119.64 156.178V158.933C119.62 160.402 118.34 161.578 116.74 161.578Z" fill="#B7754D"/>
<path d="M148.24 161.578H126.08C124.5 161.578 123.2 160.402 123.2 158.933V156.178C123.2 154.727 124.48 153.533 126.08 153.533H148.24C149.82 153.533 151.12 154.708 151.12 156.178V158.933C151.1 160.402 149.82 161.578 148.24 161.578Z" fill="#E25C2D"/>
<path d="M179.72 161.578H157.56C155.98 161.578 154.68 160.402 154.68 158.933V156.178C154.68 154.727 155.96 153.533 157.56 153.533H179.72C181.3 153.533 182.6 154.708 182.6 156.178V158.933C182.6 160.402 181.3 161.578 179.72 161.578Z" fill="#934235"/>
<path d="M211.2 161.578H189.06C187.48 161.578 186.18 160.402 186.18 158.933V156.178C186.18 154.727 187.46 153.533 189.06 153.533H211.2C212.78 153.533 214.08 154.708 214.08 156.178V158.933C214.08 160.402 212.8 161.578 211.2 161.578Z" fill="#E25C2D"/>
<path d="M241.88 161.578H219.72C218.14 161.578 216.84 160.402 216.84 158.933V156.178C216.84 154.727 218.12 153.533 219.72 153.533H241.88C243.46 153.533 244.76 154.708 244.76 156.178V158.933C244.76 160.402 243.46 161.578 241.88 161.578Z" fill="#E25C2D"/>
<path d="M7.52 171.11H-14.62C-16.2 171.11 -17.5 169.935 -17.5 168.465V165.71C-17.5 164.259 -16.22 163.065 -14.62 163.065H7.52C9.1 163.065 10.4 164.241 10.4 165.71V168.465C10.4 169.935 9.12 171.11 7.52 171.11Z" fill="#EA8044"/>
<path d="M39.02 171.11H16.86C15.28 171.11 13.98 169.935 13.98 168.465V165.71C13.98 164.259 15.26 163.065 16.86 163.065H39.02C40.6 163.065 41.9 164.241 41.9 165.71V168.465C41.88 169.935 40.6 171.11 39.02 171.11Z" fill="#E25C2D"/>
<path d="M70.4999 171.11H48.34C46.76 171.11 45.46 169.935 45.46 168.465V165.71C45.46 164.259 46.74 163.065 48.34 163.065H70.4999C72.0799 163.065 73.3799 164.241 73.3799 165.71V168.465C73.3799 169.935 72.0799 171.11 70.4999 171.11Z" fill="#B7754D"/>
<path d="M101.98 171.11H79.84C78.26 171.11 76.96 169.935 76.96 168.465V165.71C76.96 164.259 78.24 163.065 79.84 163.065H102C103.58 163.065 104.88 164.241 104.88 165.71V168.465C104.86 169.935 103.58 171.11 101.98 171.11Z" fill="#EA8044"/>
<path d="M133.48 171.11H111.32C109.74 171.11 108.44 169.935 108.44 168.465V165.71C108.44 164.259 109.72 163.065 111.32 163.065H133.48C135.06 163.065 136.36 164.241 136.36 165.71V168.465C136.34 169.935 135.06 171.11 133.48 171.11Z" fill="#E25C2D"/>
<path d="M164.96 171.11H142.8C141.22 171.11 139.92 169.935 139.92 168.465V165.71C139.92 164.259 141.2 163.065 142.8 163.065H164.96C166.54 163.065 167.84 164.241 167.84 165.71V168.465C167.84 169.935 166.54 171.11 164.96 171.11Z" fill="#EA8044"/>
<path d="M196.44 171.11H174.3C172.72 171.11 171.42 169.935 171.42 168.465V165.71C171.42 164.259 172.7 163.065 174.3 163.065H196.46C198.04 163.065 199.34 164.241 199.34 165.71V168.465C199.32 169.935 198.04 171.11 196.44 171.11Z" fill="#B7754D"/>
<path d="M227.94 171.11H205.78C204.2 171.11 202.9 169.935 202.9 168.465V165.71C202.9 164.259 204.18 163.065 205.78 163.065H227.94C229.52 163.065 230.82 164.241 230.82 165.71V168.465C230.8 169.935 229.52 171.11 227.94 171.11Z" fill="#E25C2D"/>
<path d="M258.08 171.11H235.92C234.34 171.11 233.04 169.935 233.04 168.465V165.71C233.04 164.259 234.32 163.065 235.92 163.065H258.08C259.66 163.065 260.96 164.241 260.96 165.71V168.465C260.94 169.935 259.66 171.11 258.08 171.11Z" fill="#EA8044"/>
<path d="M22.28 181.139H0.14001C-1.43999 181.139 -2.73999 179.963 -2.73999 178.494V175.739C-2.73999 174.288 -1.45999 173.094 0.14001 173.094H22.3C23.88 173.094 25.18 174.269 25.18 175.739V178.494C25.16 179.963 23.88 181.139 22.28 181.139Z" fill="#934235"/>
<path d="M53.78 181.139H31.62C30.04 181.139 28.74 179.963 28.74 178.494V175.739C28.74 174.288 30.02 173.094 31.62 173.094H53.78C55.36 173.094 56.66 174.269 56.66 175.739V178.494C56.64 179.963 55.36 181.139 53.78 181.139Z" fill="#E25C2D"/>
<path d="M85.26 181.139H63.1C61.52 181.139 60.22 179.963 60.22 178.494V175.739C60.22 174.288 61.5 173.094 63.1 173.094H85.26C86.84 173.094 88.14 174.269 88.14 175.739V178.494C88.14 179.963 86.84 181.139 85.26 181.139Z" fill="#EA8044"/>
<path d="M116.74 181.139H94.6C93.02 181.139 91.72 179.963 91.72 178.494V175.739C91.72 174.288 93 173.094 94.6 173.094H116.76C118.34 173.094 119.64 174.269 119.64 175.739V178.494C119.62 179.963 118.34 181.139 116.74 181.139Z" fill="#934235"/>
<path d="M148.24 181.139H126.08C124.5 181.139 123.2 179.963 123.2 178.494V175.739C123.2 174.288 124.48 173.094 126.08 173.094H148.24C149.82 173.094 151.12 174.269 151.12 175.739V178.494C151.1 179.963 149.82 181.139 148.24 181.139Z" fill="#E25C2D"/>
<path d="M179.72 181.139H157.56C155.98 181.139 154.68 179.963 154.68 178.494V175.739C154.68 174.288 155.96 173.094 157.56 173.094H179.72C181.3 173.094 182.6 174.269 182.6 175.739V178.494C182.6 179.963 181.3 181.139 179.72 181.139Z" fill="#934235"/>
<path d="M211.2 181.139H189.06C187.48 181.139 186.18 179.963 186.18 178.494V175.739C186.18 174.288 187.46 173.094 189.06 173.094H211.2C212.78 173.094 214.08 174.269 214.08 175.739V178.494C214.08 179.963 212.8 181.139 211.2 181.139Z" fill="#EA8044"/>
<path d="M241.88 181.139H219.72C218.14 181.139 216.84 179.963 216.84 178.494V175.739C216.84 174.288 218.12 173.094 219.72 173.094H241.88C243.46 173.094 244.76 174.269 244.76 175.739V178.494C244.76 179.963 243.46 181.139 241.88 181.139Z" fill="#934235"/>
<path d="M272.56 181.139H250.4C248.82 181.139 247.52 179.963 247.52 178.494V175.739C247.52 174.288 248.8 173.094 250.4 173.094H272.56C274.14 173.094 275.44 174.269 275.44 175.739V178.494C275.44 179.963 274.14 181.139 272.56 181.139Z" fill="#EA8044"/>
</g>
</g>
<defs>
<linearGradient id="paint0_linear" x1="140" y1="1.79469" x2="140" y2="179.793" gradientUnits="userSpaceOnUse">
<stop stop-color="#DDC3C3"/>
<stop offset="0.5922" stop-color="#E9DAD1"/>
<stop offset="1" stop-color="#EFE5D8"/>
</linearGradient>
<linearGradient id="paint1_linear" x1="140" y1="77.2181" x2="140" y2="137.415" gradientUnits="userSpaceOnUse">
<stop stop-color="#B08498"/>
<stop offset="0.3581" stop-color="#B58C9B"/>
<stop offset="0.8983" stop-color="#C4A0A3"/>
<stop offset="1" stop-color="#C7A5A5"/>
</linearGradient>
<linearGradient id="paint2_linear" x1="0" y1="162.643" x2="280" y2="162.643" gradientUnits="userSpaceOnUse">
<stop stop-color="#B08498"/>
<stop offset="0.3581" stop-color="#B58C9B"/>
<stop offset="0.8983" stop-color="#C4A0A3"/>
<stop offset="1" stop-color="#C7A5A5"/>
</linearGradient>
<linearGradient id="paint3_linear" x1="182.917" y1="67.5145" x2="188.986" y2="67.5145" gradientUnits="userSpaceOnUse">
<stop stop-color="#FB9C7F"/>
<stop offset="1" stop-color="#FDC19F"/>
</linearGradient>
<linearGradient id="paint4_linear" x1="153.855" y1="69.25" x2="158.59" y2="69.25" gradientUnits="userSpaceOnUse">
<stop stop-color="#FB9C7F"/>
<stop offset="1" stop-color="#FDC19F"/>
</linearGradient>
<linearGradient id="paint5_linear" x1="166.901" y1="75.0486" x2="169.241" y2="67.2169" gradientUnits="userSpaceOnUse">
<stop stop-color="#EF625F"/>
<stop offset="1" stop-color="#FDC19F"/>
</linearGradient>
<linearGradient id="paint6_linear" x1="92.5409" y1="109.435" x2="125.802" y2="109.435" gradientUnits="userSpaceOnUse">
<stop stop-color="#FB9C7F"/>
<stop offset="1" stop-color="#FDC19F"/>
</linearGradient>
<linearGradient id="paint7_linear" x1="220.866" y1="97.464" x2="248.686" y2="97.464" gradientUnits="userSpaceOnUse">
<stop stop-color="#FB9C7F"/>
<stop offset="1" stop-color="#FDC19F"/>
</linearGradient>
<clipPath id="clip0">
<rect width="280" height="180" rx="10" fill="white"/>
</clipPath>
</defs>
</svg>
