<svg width="280" height="180" viewBox="0 0 280 180" fill="none" xmlns="http://www.w3.org/2000/svg">
<g style="mix-blend-mode:multiply">
<path d="M280 0H0V180H280V0Z" fill="#C6EBFE"/>
<path d="M244.981 2.781C244.981 1.854 244.972 0.926999 244.953 0H0V122.544C25.4987 140.589 56.9613 151.245 91.0093 151.245C176.045 151.245 244.981 84.7799 244.981 2.781Z" fill="#D2F0FC"/>
<path d="M211.521 0H0V83.007C20.2067 92.403 42.868 97.668 66.808 97.668C133.336 97.668 190.008 56.979 211.521 0Z" fill="#DEF5FC"/>
<path d="M164.808 0H0V47.151C14.5507 51.552 30.0347 53.919 46.0973 53.919C93.8746 53.919 136.565 32.931 164.808 0Z" fill="#EDF9FC"/>
<path d="M262.621 143.433C262.621 139.032 258.916 135.459 254.352 135.459H31.2013C26.6373 135.459 22.932 139.032 22.932 143.433C22.932 147.834 26.6373 151.407 31.2013 151.407H59.92C56.1213 151.407 53.0413 154.377 53.0413 158.04C53.0413 161.703 56.1213 164.673 59.92 164.673H245.663C249.461 164.673 252.541 161.703 252.541 158.04C252.541 154.377 249.461 151.407 245.663 151.407H254.343C258.916 151.407 262.621 147.834 262.621 143.433Z" fill="#9BB8CC"/>
<path d="M203.243 113.58H145.04V116.685H203.243V113.58Z" fill="#FBFFFD"/>
<path d="M203.243 126.297H145.04V129.402H203.243V126.297Z" fill="#FBFFFD"/>
<path d="M177.492 116.433V113.832C177.492 113.742 177.483 113.661 177.464 113.58H172.62C172.601 113.661 172.592 113.742 172.592 113.832V116.433C172.592 116.523 172.601 116.604 172.62 116.685H177.464C177.483 116.604 177.492 116.514 177.492 116.433Z" fill="#F2EED6"/>
<path d="M177.492 129.15V126.549C177.492 126.459 177.483 126.378 177.464 126.297H172.62C172.601 126.378 172.592 126.459 172.592 126.549V129.15C172.592 129.24 172.601 129.321 172.62 129.402H177.464C177.483 129.321 177.492 129.24 177.492 129.15Z" fill="#F2EED6"/>
<path d="M172.797 117.495H175.495C176.111 117.495 176.605 117.018 176.605 116.424V113.823C176.605 113.229 176.111 112.752 175.495 112.752H172.797C172.181 112.752 171.687 113.229 171.687 113.823V116.424C171.687 117.018 172.181 117.495 172.797 117.495Z" fill="#FBFFFD"/>
<path d="M172.797 130.221H175.495C176.111 130.221 176.605 129.744 176.605 129.15V126.549C176.605 125.955 176.111 125.478 175.495 125.478H172.797C172.181 125.478 171.687 125.955 171.687 126.549V129.15C171.687 129.744 172.181 130.221 172.797 130.221Z" fill="#FBFFFD"/>
<path d="M172.797 117.495H175.495C176.111 117.495 176.605 117.018 176.605 116.424V115.155C176.605 115.749 176.111 116.226 175.495 116.226H172.797C172.181 116.226 171.687 115.749 171.687 115.155V116.424C171.687 117.018 172.181 117.495 172.797 117.495Z" fill="#F3EFDE"/>
<path d="M172.797 130.221H175.495C176.111 130.221 176.605 129.744 176.605 129.15V127.881C176.605 128.475 176.111 128.952 175.495 128.952H172.797C172.181 128.952 171.687 128.475 171.687 127.881V129.15C171.687 129.744 172.181 130.221 172.797 130.221Z" fill="#F3EFDE"/>
<path d="M156.501 113.58H146.851V115.893C146.851 116.154 146.841 116.415 146.832 116.676H156.483C156.492 116.415 156.501 116.154 156.501 115.893V113.58Z" fill="#F1EFD8"/>
<path d="M145.04 126.297V129.402H151.125C152.021 128.448 152.815 127.404 153.505 126.297H145.04Z" fill="#F2EED6"/>
<path d="M99.2694 147.627C100.511 147.627 101.519 146.655 101.519 145.458C101.519 144.261 100.511 143.289 99.2694 143.289H53.6108C52.3695 143.289 51.3615 144.261 51.3615 145.458C51.3615 146.655 52.3695 147.627 53.6108 147.627H99.2694Z" fill="#6F95AA"/>
<path d="M150.267 154.674C151.508 154.674 152.516 153.702 152.516 152.505C152.516 151.308 151.508 150.336 150.267 150.336H104.608C103.367 150.336 102.359 151.308 102.359 152.505C102.359 153.702 103.367 154.674 104.608 154.674H150.267Z" fill="#6F95AA"/>
<path d="M197.531 161.001C198.623 161.001 199.5 160.029 199.5 158.832C199.5 157.635 198.613 156.663 197.531 156.663H157.462C156.37 156.663 155.493 157.635 155.493 158.832C155.493 160.029 156.38 161.001 157.462 161.001H197.531Z" fill="#6F95AA"/>
<path d="M232.269 153.414C233.371 153.414 234.267 152.442 234.267 151.245C234.267 150.048 233.371 149.076 232.269 149.076H191.595C190.493 149.076 189.597 150.048 189.597 151.245C189.597 152.442 190.493 153.414 191.595 153.414H232.269Z" fill="#6F95AA"/>
<path d="M100.408 94.338V71.478C100.408 70.551 100.193 69.624 99.7919 68.787L90.4772 49.527L81.6199 53.505L90.0292 70.893C90.4305 71.73 90.6452 72.639 90.6452 73.557V94.347H100.408V94.338Z" fill="#FE935F"/>
<path d="M89.0773 53.919H81.8253L89.0773 68.931V53.919Z" fill="#F95F3D"/>
<path d="M75.2734 31.491H66.9761V48.519H75.2734V31.491Z" fill="#FFA374"/>
<path d="M75.2733 42.057L69.0106 40.968C69.0106 40.968 69.608 43.146 75.2733 45.108V42.057Z" fill="#FD925E"/>
<path d="M81.732 20.88H74.4987V26.46H81.732V20.88Z" fill="#FFA374"/>
<path d="M80.2014 21.726H81.732V20.907V20.88C81.732 19.287 80.3974 18 78.7454 18H70.0747C68.4227 18 67.088 19.287 67.088 20.88V26.091H75.6654C75.6747 23.679 77.7 21.726 80.2014 21.726Z" fill="#4C8EB1"/>
<path d="M74.3587 43.2C78.4374 43.2 81.7414 40.014 81.7414 36.081V26.091H66.9761V36.081C66.9761 40.014 70.2801 43.2 74.3587 43.2Z" fill="#FFA374"/>
<path d="M74.3587 43.2C78.4374 43.2 81.7414 40.014 81.7414 36.081V32.22H66.9761V36.081C66.9761 40.014 70.2801 43.2 74.3587 43.2Z" fill="#653332"/>
<path d="M79.5573 34.551H72.9586C72.9586 36.306 74.4333 37.737 76.2626 37.737C78.0826 37.737 79.5573 36.306 79.5573 34.551Z" fill="#BE4B59"/>
<path d="M79.5012 35.181C79.1839 35.055 78.8479 34.983 78.4839 34.983C77.0372 34.983 75.8612 36.117 75.8612 37.512C75.8612 37.584 75.8612 37.647 75.8705 37.71C76.0012 37.728 76.1319 37.737 76.2625 37.737C77.8585 37.737 79.1932 36.639 79.5012 35.181Z" fill="#F65866"/>
<path d="M78.4279 35.28C78.6519 35.28 78.8386 35.1 78.8386 34.884V34.551H73.4906V34.884C73.4906 35.1 73.6773 35.28 73.9013 35.28H78.4279Z" fill="#FEF4FF"/>
<path d="M72.66 28.872C73.2947 28.872 73.8267 29.313 73.9387 29.898C73.9574 29.826 73.9574 29.745 73.9574 29.664C73.9574 28.971 73.3787 28.413 72.66 28.413C71.9413 28.413 71.3627 28.971 71.3627 29.664C71.3627 29.745 71.372 29.817 71.3813 29.898C71.4933 29.313 72.0253 28.872 72.66 28.872Z" fill="#653332"/>
<path d="M79.5574 28.872C80.192 28.872 80.724 29.313 80.836 29.898C80.8547 29.826 80.8547 29.745 80.8547 29.664C80.8547 28.971 80.276 28.413 79.5574 28.413C78.8387 28.413 78.26 28.971 78.26 29.664C78.26 29.745 78.2693 29.817 78.2787 29.898C78.4 29.313 78.9227 28.872 79.5574 28.872Z" fill="#653332"/>
<path d="M67.4147 29.331C68.6621 29.331 69.6733 28.3559 69.6733 27.153C69.6733 25.9501 68.6621 24.975 67.4147 24.975C66.1672 24.975 65.156 25.9501 65.156 27.153C65.156 28.3559 66.1672 29.331 67.4147 29.331Z" fill="#FFA374"/>
<path d="M67.4147 28.251C68.0435 28.251 68.5533 27.7594 68.5533 27.153C68.5533 26.5466 68.0435 26.055 67.4147 26.055C66.7858 26.055 66.276 26.5466 66.276 27.153C66.276 27.7594 66.7858 28.251 67.4147 28.251Z" fill="#FD925E"/>
<path d="M82.6187 21.726H80.2014C77.7 21.726 75.6747 23.679 75.6747 26.091H78.092C78.092 24.084 79.5014 22.392 81.4054 21.888H81.396H81.4054L82.6187 21.726Z" fill="#4479B1"/>
<path d="M87.1173 26.091C87.1173 23.679 85.092 21.726 82.5907 21.726H81.7413V21.807V21.834V21.879V21.987V26.082H84.7H87.1173V26.091Z" fill="#316597"/>
<path d="M79.6413 20.754C80.0893 20.754 80.4533 20.403 80.4533 19.971C80.4533 19.539 80.0893 19.188 79.6413 19.188H76.8786C76.4306 19.188 76.0667 19.539 76.0667 19.971C76.0667 20.403 76.4306 20.754 76.8786 20.754H79.6413Z" fill="#316597"/>
<path d="M93.8746 53.172L91.1866 47.61C89.7026 44.541 85.9133 43.209 82.7306 44.64C79.5479 46.071 78.1666 49.725 79.6506 52.794L82.3386 58.356L93.8746 53.172Z" fill="#316597"/>
<path d="M72.4081 94.338C80.5094 94.338 87.0707 88.002 87.0707 80.199V66.312V51.903C87.0707 44.829 83.0574 44.064 83.0574 44.064H79.0441H57.7361V80.19C57.7361 88.002 64.3067 94.338 72.4081 94.338Z" fill="#4479B1"/>
<path d="M50.5493 53.919L42.9893 73.962C42.6813 74.79 42.5973 75.681 42.756 76.545L46.592 97.542L56.2146 95.904L52.5839 76.068L59.7333 57.141L50.5493 53.919Z" fill="#FFA374"/>
<path d="M46.452 96.777L46.592 97.542L56.2147 95.904L52.584 76.068L59.7333 57.141L55.6453 55.71L47.9734 76.068L50.6987 90.945C51.1933 93.69 49.2987 96.3 46.452 96.777Z" fill="#FD925E"/>
<path d="M87.0707 75.654H77.756V138.636H87.0707V75.654Z" fill="#E0493F"/>
<path d="M72.4081 94.338C80.5094 94.338 87.0707 88.002 87.0707 80.199V66.312H57.7361V80.19C57.7361 88.002 64.3067 94.338 72.4081 94.338Z" fill="#FE615F"/>
<path d="M70.5599 66.312V51.903C70.5599 44.829 66.5465 44.064 66.5465 44.064H62.5332C62.5332 44.064 66.5465 44.838 66.5465 51.903V66.312H70.5599V66.312Z" fill="#FE615F"/>
<path d="M87.0707 66.312V51.903C87.0707 44.829 83.0574 44.064 83.0574 44.064H79.0441C79.0441 44.064 83.0574 44.838 83.0574 51.903V66.312H87.0707V66.312Z" fill="#FE615F"/>
<path d="M70.084 60.777C70.5693 60.777 70.9706 60.39 70.9706 59.922V56.961C70.9706 56.493 70.5693 56.106 70.084 56.106H67.0133C66.5279 56.106 66.1266 56.493 66.1266 56.961V59.922C66.1266 60.39 66.5279 60.777 67.0133 60.777H70.084ZM66.9666 59.922V56.961C66.9666 56.934 66.9946 56.907 67.0226 56.907H70.0933C70.1213 56.907 70.1493 56.934 70.1493 56.961V59.922C70.1493 59.949 70.1213 59.976 70.0933 59.976H67.0226C66.9853 59.976 66.9666 59.949 66.9666 59.922Z" fill="#CEF0F4"/>
<path d="M86.5853 58.194C87.0706 58.194 87.4719 57.807 87.4719 57.339V54.378C87.4719 53.91 87.0706 53.523 86.5853 53.523H83.5146C83.0293 53.523 82.6279 53.91 82.6279 54.378V57.33C82.6279 57.798 83.0293 58.185 83.5146 58.185H86.5853V58.194ZM83.4679 57.33V54.369C83.4679 54.342 83.4959 54.315 83.5239 54.315H86.5946C86.6226 54.315 86.6506 54.342 86.6506 54.369V57.33C86.6506 57.357 86.6226 57.384 86.5946 57.384H83.5239C83.4866 57.393 83.4679 57.366 83.4679 57.33Z" fill="#CEF0F4"/>
<path d="M67.0507 75.654H57.7361V138.636H67.0507V75.654Z" fill="#FE615F"/>
<path d="M68.0028 141.453C68.0028 138.465 65.4921 136.053 62.4027 136.053C59.3041 136.053 56.8027 138.474 56.8027 141.453V142.65H68.0121V141.453H68.0028Z" fill="#666666"/>
<path d="M68.7586 142.659H56.028V145.458H68.7586V142.659Z" fill="#989898"/>
<path d="M58.9306 142.659H56.028V145.458H58.9306V142.659Z" fill="#666666"/>
<path d="M98.28 137.961H77.756V142.65H98.28V137.961Z" fill="#666666"/>
<path d="M83.3374 142.659H77.756V145.458H83.3374V142.659Z" fill="#4D4D4D"/>
<path d="M98.9146 144.576V142.659H88.5173V145.458H98C98.504 145.458 98.9146 145.062 98.9146 144.576Z" fill="#4D4D4D"/>
<path d="M99.5679 140.31C99.5679 137.754 97.4213 135.684 94.7706 135.684C92.1199 135.684 89.9733 137.754 89.9733 140.31C89.9733 141.156 90.2159 141.948 90.6266 142.632H98.9146C99.3346 141.948 99.5679 141.156 99.5679 140.31Z" fill="#666666"/>
<path d="M61.8427 66.384V59.625L64.4374 52.758C65.1467 50.886 65.0534 48.852 64.1761 47.043C63.5881 45.828 62.0947 44.064 57.7361 44.064V58.356L57.8108 58.383V66.384H61.8427Z" fill="#316597"/>
<path d="M53.4948 102.195C56.7335 101.646 58.8895 98.667 58.3202 95.544C58.0028 93.807 56.9015 92.385 55.4362 91.566L56.2295 95.895L46.6068 97.533C47.1761 100.665 50.2561 102.744 53.4948 102.195Z" fill="#FD925E"/>
<path d="M55.6453 55.701L47.9733 76.068L50.6986 90.945C50.7079 90.981 50.7079 91.026 50.7173 91.062C50.9506 90.99 51.1839 90.936 51.4359 90.891C52.8733 90.648 54.2733 90.918 55.4399 91.575L52.6026 76.068L59.7333 57.141L55.6453 55.701Z" fill="#FD925E"/>
<path d="M46.452 96.7771L46.5971 97.542C46.5488 97.281 46.5197 97.02 46.5101 96.768C46.4907 96.768 46.4714 96.7771 46.452 96.7771Z" fill="#FD925E"/>
<path d="M46.51 96.768C46.5193 97.02 46.5473 97.281 46.594 97.542L56.2167 95.904L55.4233 91.575C54.2567 90.927 52.8473 90.648 51.4193 90.891C51.1767 90.936 50.934 90.99 50.7007 91.062C51.13 93.744 49.282 96.264 46.51 96.768Z" fill="#FD925E"/>
<path d="M94.4534 100.071C97.7369 100.071 100.399 97.5043 100.399 94.338C100.399 91.1717 97.7369 88.605 94.4534 88.605C91.1699 88.605 88.5081 91.1717 88.5081 94.338C88.5081 97.5043 91.1699 100.071 94.4534 100.071Z" fill="#FE935F"/>
<path d="M50.5496 53.9126L49.7197 56.1115L58.9025 59.3342L59.7324 57.1353L50.5496 53.9126Z" fill="#FD925E"/>
<path d="M63.14 52.299C64.344 49.113 62.636 45.594 59.332 44.433C56.028 43.272 52.3787 44.919 51.1747 48.105L49 53.865L60.9653 58.059L63.14 52.299Z" fill="#4479B1"/>
<path d="M73.3599 106.137L76.1785 107.703C76.3652 105.885 75.4505 104.04 73.7052 103.068C71.3159 101.736 68.2638 102.528 66.8825 104.832C65.5012 107.136 66.3225 110.079 68.7119 111.411C70.4665 112.383 72.5665 112.221 74.1159 111.159L71.2972 109.593C70.3079 109.044 69.9719 107.82 70.5412 106.866C71.1105 105.912 72.3705 105.588 73.3599 106.137Z" fill="#656665"/>
<path d="M34.2253 88.947L31.4066 87.381C31.2199 89.199 32.1346 91.0441 33.8799 92.0161C36.2693 93.3481 39.3213 92.556 40.7026 90.252C42.0839 87.948 41.2626 85.005 38.8733 83.673C37.1186 82.701 35.0186 82.863 33.4693 83.925L36.2879 85.491C37.2773 86.04 37.6133 87.264 37.0439 88.218C36.4746 89.172 35.2146 89.496 34.2253 88.947Z" fill="#656665"/>
<path d="M67.2465 107.334L69.3092 103.878L53.9559 95.337C52.9665 94.788 51.7065 95.112 51.1279 96.066C50.5585 97.02 50.8945 98.235 51.8839 98.793L67.2465 107.334Z" fill="#656665"/>
<path d="M45.3133 90.522L40.3386 87.75L38.2666 91.206L46.2466 95.643L45.3133 90.522Z" fill="#656665"/>
<path d="M144.162 105.057C148.708 105.057 152.394 101.502 152.394 97.119V86.175C152.394 85.374 151.722 84.735 150.901 84.735H116.592C115.761 84.735 115.098 85.383 115.098 86.175V97.119C115.098 101.502 118.785 105.057 123.33 105.057H144.162Z" fill="white"/>
<path d="M152.395 97.119V86.175C152.395 85.374 151.723 84.735 150.901 84.735H145.917V97.119C145.917 101.502 142.231 105.057 137.685 105.057H144.163C148.708 105.057 152.395 101.502 152.395 97.119Z" fill="#F9EEE4"/>
<path d="M156.193 109.998C156.193 107.271 153.897 105.057 151.069 105.057H116.433C113.605 105.057 111.309 107.271 111.309 109.998V110.799H156.203V109.998H156.193Z" fill="white"/>
<path d="M156.193 110.799V109.998C156.193 107.271 153.897 105.057 151.069 105.057H139.916C142.744 105.057 145.04 107.271 145.04 109.998V110.799H156.193Z" fill="#F9EEE4"/>
<path d="M144.116 124.029H123.368V148.149H144.116V124.029Z" fill="white"/>
<path d="M144.125 124.029H139.3V140.265C139.3 144.621 135.641 148.149 131.124 148.149H144.125V124.029Z" fill="#F9EEE4"/>
<path d="M133.747 136.089C145.32 136.089 154.691 127.044 154.691 115.893V110.799H112.793V115.893C112.803 127.053 122.173 136.089 133.747 136.089Z" fill="white"/>
<path d="M154.691 115.893V110.799H145.04V115.893C145.04 125.451 138.161 133.452 128.921 135.549C130.471 135.9 132.085 136.089 133.747 136.089C145.311 136.089 154.691 127.053 154.691 115.893Z" fill="#F9EEE4"/>
<path d="M147.243 148.158H120.241V151.578H147.243V148.158Z" fill="white"/>
<path d="M104.636 131.949V116.217H100.389C98.2333 116.217 96.4786 117.909 96.4786 119.988V128.178C96.4786 130.257 98.2333 131.949 100.389 131.949H104.636V131.949Z" fill="#CC7C40"/>
<path d="M138.432 116.811H105.261V131.337H138.432V116.811Z" fill="#FFCF61"/>
<path d="M105.887 116.217H104.636V131.949H105.887V116.217Z" fill="#FFA461"/>
<path d="M139.057 116.217H137.807V131.949H139.057V116.217Z" fill="#FFA461"/>
<path d="M139.048 116.217H104.636V117.423H139.048V116.217Z" fill="#FFA461"/>
<path d="M139.048 130.743H104.636V131.949H139.048V130.743Z" fill="#FFA461"/>
<path d="M127.979 142.308C128.221 142.452 128.557 142.362 128.716 142.101L139.375 125.469C139.543 125.208 139.477 124.884 139.235 124.74L137.321 123.606C137.079 123.462 136.743 123.552 136.584 123.813L125.925 140.445C125.757 140.706 125.823 141.03 126.065 141.174L127.979 142.308Z" fill="#F7A921"/>
<path d="M128.184 141.777C128.016 142.038 127.689 142.128 127.447 141.984L127.979 142.299C128.221 142.443 128.557 142.353 128.716 142.092L139.375 125.46C139.543 125.199 139.477 124.875 139.235 124.731L138.703 124.416C138.945 124.56 139.011 124.893 138.843 125.145L128.184 141.777Z" fill="#B8791B"/>
<path d="M136.11 123.592L134.408 126.248L138.084 128.438L139.786 125.782L136.11 123.592Z" fill="#B3B3B3"/>
<path d="M132.772 121.61L131.07 124.267L132.578 125.166L134.281 122.509L132.772 121.61Z" fill="#B3B3B3"/>
<path d="M132.627 121.518L132.076 121.761L131.488 122.67L131.926 122.931L132.776 121.608L132.627 121.518Z" fill="#B3B3B3"/>
<path d="M131.927 122.931L131.488 122.67L130.909 123.588L130.928 124.173L131.077 124.263L131.927 122.931Z" fill="#B3B3B3"/>
<path d="M141.61 126.871L139.908 129.528L141.416 130.427L143.119 127.77L141.61 126.871Z" fill="#B3B3B3"/>
<path d="M143.266 127.854L143.117 127.764L142.268 129.096L142.697 129.348L143.285 128.439L143.266 127.854Z" fill="#B3B3B3"/>
<path d="M142.697 129.348L142.268 129.096L141.419 130.419L141.568 130.509L142.119 130.266L142.697 129.348Z" fill="#B3B3B3"/>
<path d="M132.58 125.154C132.888 124.668 133.551 124.515 134.055 124.821C134.559 125.118 134.717 125.757 134.4 126.243L136.099 123.588C135.791 124.074 135.128 124.227 134.624 123.921C134.12 123.615 133.961 122.985 134.279 122.499L132.58 125.154Z" fill="#6E6D6B"/>
<path d="M138.087 128.439C138.395 127.953 139.057 127.8 139.561 128.106C140.065 128.403 140.224 129.042 139.907 129.528L141.605 126.873C141.297 127.359 140.635 127.512 140.131 127.206C139.627 126.909 139.468 126.27 139.785 125.784L138.087 128.439Z" fill="#6E6D6B"/>
<path d="M127.167 141.246L128.94 139.914C129.164 139.743 129.192 139.41 128.996 139.167L116.564 123.723C116.368 123.48 116.032 123.426 115.808 123.588L114.035 124.92C113.811 125.091 113.783 125.424 113.979 125.667L126.411 141.111C126.607 141.354 126.943 141.417 127.167 141.246Z" fill="#F7A921"/>
<path d="M128.445 140.292L128.94 139.923C129.164 139.752 129.192 139.419 128.996 139.176L116.564 123.732C116.368 123.489 116.032 123.435 115.808 123.597L115.313 123.966C115.537 123.795 115.883 123.858 116.069 124.101L128.501 139.545C128.697 139.788 128.669 140.121 128.445 140.292Z" fill="#B8791B"/>
<path d="M112.933 152.514H144.527C147.065 152.514 149.128 150.525 149.128 148.077V134.001H108.341V148.077C108.341 150.525 110.395 152.514 112.933 152.514Z" fill="#4D4D4D"/>
<path d="M120.139 152.514C122.677 152.514 124.74 150.525 124.74 148.077V134.001H105.541V148.077C105.541 150.525 107.604 152.514 110.143 152.514H120.139Z" fill="#666666"/>
<path d="M150.258 131.949H124.731V134.01H150.258V131.949Z" fill="#666666"/>
<path d="M124.731 131.949H104.337V134.01H124.731V131.949Z" fill="#989898"/>
<path d="M142.259 84.735C142.548 84.735 142.791 84.51 142.791 84.222V83.547H138.087V84.222C138.087 84.501 138.32 84.735 138.619 84.735H142.259Z" fill="#498ABF"/>
<path d="M146.711 79.281C146.711 77.931 145.572 76.833 144.172 76.833C142.772 76.833 141.633 77.931 141.633 79.281C141.633 80.631 142.772 81.729 144.172 81.729C145.581 81.729 146.711 80.631 146.711 79.281ZM142.744 79.281C142.744 78.516 143.388 77.895 144.181 77.895C144.975 77.895 145.619 78.516 145.619 79.281C145.619 80.046 144.975 80.667 144.181 80.667C143.388 80.667 142.744 80.046 142.744 79.281Z" fill="#457AB0"/>
<path d="M142.38 83.844C143.369 83.844 144.181 83.07 144.181 82.107V75.915C144.181 75.681 143.985 75.492 143.743 75.492H137.125C136.883 75.492 136.687 75.681 136.687 75.915V82.107C136.687 83.061 137.489 83.844 138.488 83.844H142.38Z" fill="#4E8CC9"/>
<path d="M142.791 84.195V83.538H140.439V84.726H142.24C142.548 84.735 142.791 84.492 142.791 84.195Z" fill="#3F79A8"/>
<path d="M144.182 82.107V75.915C144.182 75.681 143.986 75.492 143.743 75.492H140.439V83.844H142.38C143.379 83.844 144.182 83.061 144.182 82.107Z" fill="#457AB0"/>
<path d="M132.739 84.735C133.467 84.735 134.055 84.168 134.055 83.466V82.89H122.033V83.466C122.033 84.168 122.621 84.735 123.349 84.735H132.739Z" fill="#D0BD5F"/>
<path d="M129.145 84.735C129.873 84.735 130.461 84.168 130.461 83.466V82.89H118.44V83.466C118.44 84.168 119.028 84.735 119.756 84.735H129.145Z" fill="#F4DF5E"/>
<path d="M176.857 158.067C176.979 158.085 177.1 158.031 177.175 157.932C177.529 157.473 178.136 157.203 178.771 157.293C179.405 157.383 179.9 157.806 180.105 158.346C180.152 158.463 180.245 158.544 180.367 158.562L181.804 158.76C181.981 158.787 182.159 158.661 182.177 158.49L182.728 154.881C182.756 154.71 182.625 154.539 182.448 154.521L181.011 154.323C180.889 154.305 180.768 154.359 180.693 154.458C180.339 154.917 179.732 155.187 179.097 155.097C178.463 155.007 177.968 154.584 177.763 154.044C177.716 153.927 177.623 153.846 177.501 153.828L168.877 152.613C167.664 152.442 166.535 153.252 166.357 154.422C166.18 155.592 167.02 156.681 168.233 156.852L176.857 158.067Z" fill="#FFCF61"/>
<path d="M176.857 158.067C176.979 158.085 177.1 158.031 177.175 157.932C177.529 157.473 178.136 157.203 178.771 157.293C179.405 157.383 179.9 157.806 180.105 158.346C180.152 158.463 180.245 158.544 180.367 158.562L181.804 158.76C181.981 158.787 182.159 158.661 182.177 158.49L182.317 157.563L180.348 157.284C180.199 156.654 179.657 156.15 178.957 156.051C178.257 155.952 177.585 156.285 177.259 156.852L168.429 155.601C167.44 155.457 166.693 154.71 166.553 153.801C166.46 153.99 166.395 154.188 166.367 154.404C166.189 155.574 167.029 156.663 168.243 156.834L176.857 158.067Z" fill="#FFA461"/>
<path d="M195.095 159.534L197.69 159.147L197.736 158.841L197.783 158.544L195.412 157.446L194.441 157.815L182.541 156.141L182.373 157.23L194.273 158.913L195.095 159.534Z" fill="#A1A7A7"/>
<path d="M167.155 157.335C167.948 155.43 166.99 153.265 165.015 152.5C163.039 151.735 160.795 152.659 160.001 154.564C159.208 156.469 160.166 158.633 162.141 159.398C164.117 160.163 166.361 159.239 167.155 157.335Z" fill="#CD6F4C"/>
<path d="M159.273 155.853C158.667 155.619 157.985 155.898 157.743 156.483L157.687 156.609L162.4 158.436L162.895 157.248L159.273 155.853Z" fill="#FBFEFE"/>
<path d="M166.029 156.898C166.63 155.455 166.02 153.859 164.667 153.335C163.313 152.811 161.728 153.556 161.127 155C160.526 156.443 161.136 158.039 162.489 158.563C163.843 159.087 165.427 158.342 166.029 156.898Z" fill="#FBFEFE"/>
<path d="M168.961 158.04C169.755 156.135 168.797 153.971 166.821 153.206C164.846 152.441 162.601 153.365 161.808 155.269C161.014 157.174 161.972 159.339 163.948 160.104C165.923 160.869 168.168 159.945 168.961 158.04Z" fill="#FE605F"/>
<path d="M167.48 157.467C167.945 156.35 167.384 155.082 166.226 154.634C165.069 154.186 163.754 154.727 163.289 155.843C162.824 156.959 163.385 158.227 164.543 158.676C165.7 159.124 167.016 158.583 167.48 157.467Z" fill="#CE5F5E"/>
<path d="M166.035 156.907C166.179 156.561 166.005 156.168 165.646 156.029C165.287 155.89 164.88 156.058 164.735 156.404C164.591 156.75 164.765 157.143 165.124 157.282C165.483 157.421 165.89 157.253 166.035 156.907Z" fill="#BA5153"/>
<path d="M235.965 70.101C238.635 70.101 240.791 68.013 240.791 65.448V33.813C240.791 31.239 238.625 29.16 235.965 29.16H185.64C182.971 29.16 180.815 31.248 180.815 33.813V65.448C180.815 68.022 182.98 70.101 185.64 70.101H235.965V70.101Z" fill="#F9EEE4"/>
<path d="M233.828 67.707C236.498 67.707 238.654 65.619 238.654 63.054V36.198C238.654 33.624 236.488 31.545 233.828 31.545H187.778C185.108 31.545 182.952 33.633 182.952 36.198V63.054C182.952 65.628 185.118 67.707 187.778 67.707H233.828Z" fill="#FFFBF8"/>
<path d="M229.694 67.707L211.092 31.545H203.056L221.658 67.707H229.694Z" fill="white"/>
<path d="M219.67 67.707L201.068 31.545H187.778C187.115 31.545 186.471 31.68 185.902 31.914L204.316 67.716H219.67V67.707Z" fill="white"/>
<path d="M233.828 67.707C234.267 67.707 234.696 67.644 235.107 67.545L216.59 31.545H214.014L232.615 67.707H233.828Z" fill="white"/>
<path d="M223.608 151.578V103.23C223.608 99.54 226.707 96.552 230.533 96.552H236.535C242.135 96.552 246.671 92.178 246.671 86.778V81.972C246.671 79.956 244.972 78.318 242.881 78.318H180.973C178.883 78.318 177.184 79.956 177.184 81.972V86.778C177.184 92.178 181.72 96.552 187.32 96.552H193.321C197.148 96.552 200.247 99.54 200.247 103.23V151.569H223.608V151.578Z" fill="white"/>
<path d="M230.533 96.5609H236.535C242.135 96.5609 246.671 92.1869 246.671 86.7869V81.9809C246.671 79.9649 244.972 78.3269 242.881 78.3269H241.565V82.0619C241.565 87.4619 237.029 91.8359 231.429 91.8359H225.428C221.601 91.8359 218.503 94.8239 218.503 98.5139V151.578H223.608V103.23C223.608 99.5489 226.707 96.5609 230.533 96.5609Z" fill="#F9EEE4"/>
<path d="M227.556 149.373H196.299V151.578H227.556V149.373Z" fill="white"/>
<path d="M218.503 149.373V151.578H227.556V149.373H218.503Z" fill="#F9EEE4"/>
<path d="M208.852 76.608V71.757H204.773C204.251 71.757 203.831 72.162 203.831 72.666V75.69C203.831 76.194 204.251 76.599 204.773 76.599H208.852V76.608Z" fill="#DADADA"/>
<path d="M206.341 63.171C206.08 63.171 205.865 63.378 205.865 63.63V74.403H206.827V63.63C206.817 63.378 206.603 63.171 206.341 63.171Z" fill="#DADADA"/>
<path d="M208.852 76.608V75.276H204.773C204.251 75.276 203.831 74.871 203.831 74.367V75.69C203.831 76.194 204.251 76.599 204.773 76.599H208.852V76.608Z" fill="#A1A7A7"/>
<path d="M213.36 62.01C213.36 59.112 215.796 56.772 218.792 56.772H224.616C227.229 56.772 229.413 58.554 229.936 60.93C230.076 61.569 230.664 62.019 231.336 62.019C232.251 62.019 232.932 61.2 232.736 60.336C231.933 56.727 228.592 54.009 224.616 54.009H218.792C214.2 54.009 210.485 57.6 210.485 62.019V70.11H213.36V62.01Z" fill="#DADADA"/>
<path d="M216.225 71.784C216.225 70.812 215.413 70.029 214.405 70.029H209.44C208.432 70.029 207.62 70.812 207.62 71.784V78.327H216.225V71.784Z" fill="#DADADA"/>
<path d="M216.225 78.327V71.784C216.225 70.812 215.413 70.029 214.405 70.029H211.951C212.959 70.029 213.771 70.812 213.771 71.784V78.327H216.225Z" fill="#A1A7A7"/>
</g>
</svg>
