<svg width="280" height="180" viewBox="0 0 280 180" fill="none" xmlns="http://www.w3.org/2000/svg">
<g style="mix-blend-mode:darken">
<g clip-path="url(#clip0)">
<rect width="280" height="180" rx="10" fill="white"/>
<path d="M280 -0.0772095H0V180.077H280V-0.0772095Z" fill="#7989A0"/>
<path d="M221.688 93.9713C221.688 118.06 211.56 139.783 195.33 155.112H79.8529C63.6229 139.783 53.4949 118.06 53.4949 93.9713C53.4949 47.5258 91.1468 9.8739 137.591 9.8739C184.036 9.8739 221.688 47.5258 221.688 93.9713Z" fill="#A7B4CB"/>
<path d="M205.093 96.6933H197.792V90.4351H189.026V96.6933H181.725V107.559H146.979V125.227H142.286V83.4017H102.347V105.439H94.3261V92.7008L68.7058 80.5747V105.439V142.219C71.9816 146.887 75.7187 151.207 79.8528 155.112H195.33C198.893 151.747 202.161 148.074 205.093 144.136V96.6933V96.6933Z" fill="#8FA1BC"/>
<path d="M111.219 87.6945H106.984V91.9298H111.219V87.6945Z" fill="#BCC7D8"/>
<path d="M111.219 105.471H106.984V109.706H111.219V105.471Z" fill="#A7B4CB"/>
<path d="M74.1193 93.3049H71.0017V96.4226H74.1193V93.3049Z" fill="#A7B4CB"/>
<path d="M79.7054 93.3049H76.5879V96.4226H79.7054V93.3049Z" fill="#A7B4CB"/>
<path d="M85.2917 93.3049H82.1741V96.4226H85.2917V93.3049Z" fill="#A7B4CB"/>
<path d="M79.7054 104.885H76.5879V108.003H79.7054V104.885Z" fill="#A7B4CB"/>
<path d="M90.8776 104.885H87.76V108.003H90.8776V104.885Z" fill="#A7B4CB"/>
<path d="M201.531 100.743H198.414V103.86H201.531V100.743Z" fill="#BCC7D8"/>
<path d="M201.531 108.078H198.414V111.195H201.531V108.078Z" fill="#A7B4CB"/>
<path d="M194.968 108.078H191.85V111.195H194.968V108.078Z" fill="#BCC7D8"/>
<path d="M187.794 100.743H184.677V103.86H187.794V100.743Z" fill="#A7B4CB"/>
<path d="M119.606 87.6945H115.371V91.9298H119.606V87.6945Z" fill="#A7B4CB"/>
<path d="M119.606 97.0288H115.371V101.264H119.606V97.0288Z" fill="#A7B4CB"/>
<path d="M127.992 87.6945H123.757V91.9298H127.992V87.6945Z" fill="#A7B4CB"/>
<path d="M141.695 105.56H70.8418C69.3369 105.56 68.1169 106.78 68.1169 108.284V119.859C68.1169 121.364 69.3369 122.584 70.8418 122.584H141.695C143.2 122.584 144.42 121.364 144.42 119.859V108.284C144.42 106.78 143.2 105.56 141.695 105.56Z" fill="#556B82"/>
<path d="M79.8197 108.943H75.936V151.513H79.8197V108.943Z" fill="#556B82"/>
<path d="M77.6139 108.943H74.2583V151.513H77.6139V108.943Z" fill="#7989A0"/>
<path d="M77.6139 108.943H74.2583V125.045H77.6139V108.943Z" fill="#556B82"/>
<path d="M132.698 108.943H128.814V151.513H132.698V108.943Z" fill="#556B82"/>
<path d="M130.492 108.943H127.136V151.513H130.492V108.943Z" fill="#7989A0"/>
<path d="M130.492 108.943H127.136V125.045H130.492V108.943Z" fill="#556B82"/>
<path d="M137.82 105.56H66.9668C65.4619 105.56 64.2419 106.78 64.2419 108.284V119.859C64.2419 121.364 65.4619 122.584 66.9668 122.584H137.82C139.325 122.584 140.545 121.364 140.545 119.859V108.284C140.545 106.78 139.325 105.56 137.82 105.56Z" fill="#7989A0"/>
<path d="M87.9842 105.56H82.6189L89.0404 122.584H94.4057L87.9842 105.56Z" fill="#8697AA"/>
<path d="M101.899 105.56H96.5334L102.955 122.584H108.32L101.899 105.56Z" fill="#8697AA"/>
<path d="M75.1256 122.584H80.4909L74.0694 105.56H68.7041L75.1256 122.584Z" fill="#8697AA"/>
<path d="M129.728 105.56H124.363L130.784 122.584H136.15L129.728 105.56Z" fill="#8697AA"/>
<path d="M115.813 105.56H110.448L116.869 122.584H122.235L115.813 105.56Z" fill="#8697AA"/>
<path d="M187.937 112.856H197.092L206.187 143.047H178.842L187.937 112.856Z" fill="#7989A0"/>
<path d="M197.092 112.856H193.78L201.224 143.047H206.188L197.092 112.856Z" fill="#556B82"/>
<path d="M206.203 148.441H178.826C176.668 148.441 174.918 146.692 174.918 144.534V144.534C174.918 142.376 176.668 140.627 178.826 140.627H206.203C208.361 140.627 210.111 142.376 210.111 144.534V144.534C210.111 146.692 208.361 148.441 206.203 148.441Z" fill="#7989A0"/>
<path d="M206.203 140.627H201.685C203.843 140.627 205.593 142.376 205.593 144.534C205.593 146.692 203.843 148.441 201.685 148.441H206.203C208.361 148.441 210.111 146.692 210.111 144.534C210.111 142.376 208.361 140.627 206.203 140.627Z" fill="#556B82"/>
<path d="M204.072 136.024L202.474 130.721H182.555L180.958 136.024H204.072Z" fill="#BCC7D8"/>
<path d="M186.021 119.217L184.423 124.52H200.606L199.009 119.217H186.021Z" fill="#BCC7D8"/>
<path d="M204.071 136.024L202.474 130.721H198.184L199.492 136.024H204.071Z" fill="#A7B4CB"/>
<path d="M195.348 119.217L196.655 124.52H200.606L199.008 119.217H195.348Z" fill="#A7B4CB"/>
<path d="M169.08 110.132H178.234L187.33 140.323H159.984L169.08 110.132Z" fill="#EA9E25"/>
<path d="M178.234 110.132H174.922L182.366 140.323H187.33L178.234 110.132Z" fill="#CB852A"/>
<path d="M187.346 145.718H159.968C157.81 145.718 156.061 143.968 156.061 141.81V141.81C156.061 139.652 157.81 137.903 159.968 137.903H187.346C189.504 137.903 191.253 139.652 191.253 141.81V141.81C191.253 143.968 189.504 145.718 187.346 145.718Z" fill="#EA9E25"/>
<path d="M187.346 137.903H182.828C184.986 137.903 186.735 139.652 186.735 141.81C186.735 143.968 184.986 145.718 182.828 145.718H187.346C189.504 145.718 191.253 143.968 191.253 141.81C191.253 139.652 189.504 137.903 187.346 137.903Z" fill="#CB852A"/>
<path d="M185.214 133.3L183.616 127.997H163.697L162.1 133.3H185.214Z" fill="#F9F5E5"/>
<path d="M167.163 116.493L165.566 121.796H181.748L180.151 116.493H167.163Z" fill="#F9F5E5"/>
<path d="M185.214 133.3L183.616 127.997H179.327L180.634 133.3H185.214Z" fill="#DDD7C5"/>
<path d="M176.49 116.493L177.798 121.796H181.748L180.151 116.493H176.49Z" fill="#DDD7C5"/>
<path d="M140 169.071C187.889 169.071 226.711 163.036 226.711 155.592C226.711 148.148 187.889 142.113 140 142.113C92.1109 142.113 53.2891 148.148 53.2891 155.592C53.2891 163.036 92.1109 169.071 140 169.071Z" fill="#556B82"/>
<path d="M108.888 47.6444C108.494 47.2499 107.95 47.0061 107.348 47.0061H95.6359C95.4148 43.7507 92.8372 41.1421 89.5945 40.8765C89.5945 40.8687 89.5948 40.861 89.5948 40.8532C89.5948 35.4336 85.2014 31.0402 79.7818 31.0402C74.815 31.0402 70.7107 34.7304 70.0595 39.5185C70.0594 39.5185 70.0593 39.5184 70.0591 39.5184C69.7524 39.4717 69.4381 39.4483 69.1192 39.4483C65.6296 39.4483 62.8004 42.2766 62.8004 45.767C62.8004 46.1913 62.843 46.6054 62.9228 47.0061H61.8478C60.6458 47.0061 59.6704 47.9815 59.6704 49.1845C59.6704 49.786 59.9143 50.3301 60.3088 50.7246C60.7022 51.118 61.2473 51.3619 61.8478 51.3619H66.1805H72.0578H83.7142H94.3783H107.348C108.551 51.3619 109.525 50.3876 109.525 49.1845C109.525 48.583 109.282 48.0379 108.888 47.6444Z" fill="#7989A0"/>
<path d="M217.121 58.7242C216.819 58.4218 216.401 58.2343 215.939 58.2343H214.68C214.697 58.1042 214.707 57.9718 214.707 57.8369C214.707 56.1809 213.364 54.8384 211.708 54.8384C211.157 54.8384 210.641 54.9878 210.197 55.2474C209.421 53.3657 207.569 52.0415 205.406 52.0415C202.544 52.0415 200.224 54.3608 200.224 57.2231C200.224 57.5689 200.257 57.907 200.322 58.2343H198.681C197.904 57.0564 196.613 56.2468 195.126 56.1264C195.173 55.9378 195.198 55.7406 195.198 55.5374C195.198 54.1998 194.114 53.1154 192.776 53.1154C192.495 53.1154 192.224 53.164 191.973 53.2525C191.12 51.4703 189.3 50.2393 187.192 50.2393C184.266 50.2393 181.894 52.6113 181.894 55.5374C181.894 56.5225 182.163 57.4442 182.632 58.2343H180.999C180.076 58.2343 179.327 58.9832 179.327 59.9066C179.327 60.3694 179.514 60.7867 179.818 61.0902C180.119 61.3915 180.538 61.579 180.999 61.579H190.069H199.403H202.597H208.216H215.939C216.862 61.579 217.611 60.8311 217.611 59.9066C217.611 59.4449 217.424 59.0266 217.121 58.7242Z" fill="#7989A0"/>
<path d="M202.742 77.8476H198.789C198.804 77.7273 198.813 77.6049 198.813 77.4804C198.813 75.886 197.52 74.5934 195.926 74.5934C194.552 74.5934 193.403 75.5536 193.111 76.8394L193.111 76.8392C192.096 75.9401 190.762 75.3947 189.301 75.3947C188.572 75.3947 187.874 75.5308 187.232 75.7793C187.231 75.7795 187.231 75.7798 187.23 75.7801C187.484 75.1305 187.626 74.4242 187.626 73.6844C187.626 70.5098 185.052 67.9362 181.878 67.9362C178.832 67.9362 176.342 70.3048 176.144 73.3C175.648 73.0619 175.092 72.9284 174.505 72.9284C172.413 72.9284 170.716 74.6248 170.716 76.7175C170.716 78.8102 172.413 80.5067 174.505 80.5067C174.583 80.5067 174.66 80.5036 174.737 80.499C174.738 80.4991 174.739 80.4994 174.741 80.4995C174.787 80.5047 174.833 80.5067 174.881 80.5067H183.588H195.014H202.742C203.109 80.5067 203.441 80.3582 203.681 80.117C203.923 79.8767 204.071 79.5447 204.071 79.1777C204.071 78.4425 203.476 77.8476 202.742 77.8476Z" fill="#BCC7D8"/>
<path d="M145.286 156.151C166.359 156.151 183.442 153.149 183.442 149.446C183.442 145.743 166.359 142.741 145.286 142.741C124.213 142.741 107.129 145.743 107.129 149.446C107.129 153.149 124.213 156.151 145.286 156.151Z" fill="#40566B"/>
<path d="M106.657 143.406L99.5267 147.354L106.74 148.273L95.735 153.482L101.528 157.487L91.2156 160.672L105.974 157.822L101.849 154.833L118.963 147.204L108.406 146.395C108.406 146.395 113.372 144.407 117.535 142.741C113.793 142.925 110.16 143.148 106.657 143.406Z" fill="#40566B"/>
<path d="M112.246 119.811C116.236 119.811 119.47 116.576 119.47 112.586C119.47 108.596 116.236 105.362 112.246 105.362C108.256 105.362 105.021 108.596 105.021 112.586C105.021 116.576 108.256 119.811 112.246 119.811Z" fill="#F9F5E5"/>
<path d="M118.482 108.94C118.605 109.468 118.672 110.019 118.672 110.585C118.672 114.575 115.437 117.809 111.447 117.809C108.788 117.809 106.466 116.371 105.211 114.231C105.956 117.428 108.822 119.811 112.246 119.811C116.236 119.811 119.47 116.576 119.47 112.586C119.47 111.256 119.109 110.01 118.482 108.94Z" fill="#DDD7C5"/>
<path d="M115.668 103.213C112.168 102.039 108.76 103.147 108.057 105.688C107.353 108.228 109.621 111.24 113.121 112.413C116.621 113.587 120.029 112.479 120.732 109.938C121.436 107.397 119.169 104.386 115.668 103.213Z" fill="#DDD7C5"/>
<path d="M115.668 103.213C114.689 102.884 113.718 102.735 112.811 102.745C115.706 104.115 117.466 106.772 116.835 109.051C116.328 110.881 114.418 111.968 112.081 111.994C112.413 112.151 112.76 112.292 113.121 112.413C116.621 113.587 120.029 112.479 120.732 109.938C121.436 107.397 119.169 104.386 115.668 103.213Z" fill="#BFB69F"/>
<path d="M115.296 110.138C114.612 110.138 113.917 110.006 113.246 109.726C110.527 108.593 109.241 105.47 110.374 102.75L121.666 75.6536C122.799 72.934 125.922 71.6481 128.642 72.7814C131.361 73.9147 132.647 77.038 131.514 79.7575L120.222 106.854C119.369 108.903 117.385 110.138 115.296 110.138Z" fill="#F8C69B"/>
<path d="M128.642 72.7814C127.004 72.0988 125.22 72.2949 123.812 73.1521C124.431 73.1754 125.057 73.3071 125.663 73.5596C128.383 74.6928 129.668 77.8161 128.535 80.5357L117.244 107.632C116.793 108.713 116.028 109.567 115.099 110.133C115.165 110.136 115.231 110.138 115.296 110.138C117.385 110.138 119.369 108.903 120.222 106.854L131.514 79.7575C132.647 77.038 131.361 73.9147 128.642 72.7814Z" fill="#DBA77F"/>
<path d="M121.546 95.5507C120.809 95.5507 120.061 95.4082 119.338 95.1073C116.41 93.8868 115.025 90.5232 116.245 87.5945L121.287 75.4957C122.507 72.567 125.871 71.1822 128.8 72.4026C131.728 73.6231 133.113 76.9866 131.893 79.9152L126.851 92.0141C125.932 94.2205 123.796 95.5507 121.546 95.5507Z" fill="#CC4544"/>
<path d="M128.8 72.4028C127.324 71.7878 125.738 71.835 124.371 72.4072C124.898 72.4666 125.426 72.5989 125.94 72.8132C128.869 74.0337 130.254 77.3972 129.034 80.3258L123.992 92.4246C123.386 93.8775 122.253 94.9501 120.908 95.5135C121.121 95.5375 121.334 95.5508 121.546 95.5508C123.796 95.5508 125.932 94.2206 126.851 92.0142L131.893 79.9153C133.113 76.9867 131.728 73.6232 128.8 72.4028Z" fill="#A92D2D"/>
<path d="M131.264 80.6411C129.02 80.6411 126.886 79.564 125.556 77.7598L122.524 73.6468C122.009 74.1616 121.584 74.7825 121.287 75.4957L121.037 76.0962C120.884 76.8222 120.802 77.5744 120.802 78.3461V83.6751C120.802 87.7046 122.998 91.221 126.26 93.0922C126.49 92.7613 126.69 92.4016 126.851 92.0141L131.594 80.6328C131.484 80.6378 131.374 80.6411 131.264 80.6411Z" fill="#A92D2D"/>
<path d="M129.185 146.28C126.783 146.28 124.835 144.333 124.835 141.931V126.426C124.835 124.024 126.783 122.076 129.185 122.076C131.587 122.076 133.534 124.024 133.534 126.426V141.931C133.534 144.333 131.587 146.28 129.185 146.28Z" fill="#8E6E54"/>
<path d="M127.327 135.059H125.122C124.824 135.059 124.583 135.3 124.583 135.598C124.583 135.896 124.824 136.138 125.122 136.138H127.327C127.625 136.138 127.867 135.896 127.867 135.598C127.867 135.3 127.625 135.059 127.327 135.059Z" fill="#725539"/>
<path d="M127.327 136.952H125.122C124.824 136.952 124.583 137.193 124.583 137.492C124.583 137.79 124.824 138.031 125.122 138.031H127.327C127.625 138.031 127.867 137.79 127.867 137.492C127.867 137.193 127.625 136.952 127.327 136.952Z" fill="#725539"/>
<path d="M127.327 138.845H125.122C124.824 138.845 124.583 139.087 124.583 139.385C124.583 139.683 124.824 139.924 125.122 139.924H127.327C127.625 139.924 127.867 139.683 127.867 139.385C127.867 139.087 127.625 138.845 127.327 138.845Z" fill="#725539"/>
<path d="M132.054 141.645H119.745C117.293 141.645 115.306 143.632 115.306 146.083V149.9H123.093C123.334 148.883 124.246 148.125 125.337 148.125C126.428 148.125 127.34 148.883 127.581 149.9H134.569V144.16C134.569 142.771 133.443 141.645 132.054 141.645Z" fill="#8E6E54"/>
<path d="M115.306 147.681V149.9H123.093C123.334 148.883 124.246 148.125 125.337 148.125C126.428 148.125 127.34 148.883 127.581 149.9H134.569V147.681H115.306Z" fill="#725539"/>
<path d="M123.634 143.521V141.315C123.634 141.017 123.393 140.776 123.095 140.776C122.796 140.776 122.555 141.017 122.555 141.315V143.521C122.555 143.819 122.796 144.06 123.095 144.06C123.393 144.06 123.634 143.819 123.634 143.521Z" fill="#725539"/>
<path d="M121.741 143.521V141.315C121.741 141.017 121.499 140.776 121.201 140.776C120.903 140.776 120.662 141.017 120.662 141.315V143.521C120.662 143.819 120.903 144.06 121.201 144.06C121.499 144.06 121.741 143.819 121.741 143.521Z" fill="#725539"/>
<path d="M169.72 141.185H169.679C169.637 141.069 169.592 140.954 169.54 140.84L163.093 126.739C162.094 124.554 159.513 123.593 157.329 124.592C155.144 125.591 154.183 128.172 155.181 130.356L161.628 144.457C162.058 145.398 162.782 146.111 163.64 146.539V149.9H171.122V144.182L169.72 141.185Z" fill="#8E6E54"/>
<path d="M141.721 106.507L135.398 116.26V128.683C135.398 128.784 135.396 128.886 135.39 128.986C135.232 132.276 132.514 134.895 129.185 134.895C125.868 134.895 123.158 132.297 122.981 129.026C122.974 128.912 122.971 128.798 122.971 128.683V114.424C122.971 113.224 123.319 112.05 123.971 111.044L131.293 99.7464C133.159 96.8674 137.006 96.0467 139.887 97.9129C142.766 99.7792 143.588 103.627 141.721 106.507Z" fill="#627FB6"/>
<path d="M122.971 126.474V128.682C122.971 128.797 122.974 128.912 122.981 129.025L135.39 128.986C135.396 128.886 135.398 128.784 135.398 128.682V126.435L122.971 126.474ZM122.971 117.009V119.558L135.398 119.518V116.969L122.971 117.009Z" fill="#F9F5E5"/>
<path d="M161.705 134.328C160.866 134.714 159.984 134.896 159.116 134.896C156.764 134.896 154.512 133.552 153.466 131.274L152.856 129.943L151.791 127.625L148.905 121.337L147.84 119.018L145.868 114.724L141.602 105.809C140.12 102.714 141.43 99.0024 144.526 97.5218C147.62 96.0397 151.331 97.3478 152.811 100.444L157.1 109.404C157.114 109.433 157.128 109.463 157.141 109.494L159.267 114.125L160.331 116.442L163.216 122.729L164.282 125.048L164.759 126.089C166.192 129.207 164.823 132.897 161.705 134.328Z" fill="#627FB6"/>
<path d="M167.005 146.708V149.9H155.961V146.708C155.961 143.658 158.434 141.185 161.484 141.185C164.532 141.185 167.005 143.658 167.005 146.708Z" fill="#9B7F6A"/>
<path d="M171.122 147.681H157.381V149.9H171.122V147.681Z" fill="#513823"/>
<path d="M167.005 147.681H155.961V149.9H167.005V147.681Z" fill="#725539"/>
<path d="M161.843 135.36L159.839 136.279C159.568 136.403 159.449 136.723 159.573 136.994C159.697 137.265 160.017 137.384 160.288 137.26L162.293 136.341C162.564 136.217 162.683 135.897 162.558 135.626C162.434 135.355 162.114 135.236 161.843 135.36Z" fill="#725539"/>
<path d="M162.632 137.081L160.627 138C160.356 138.124 160.238 138.444 160.362 138.715C160.486 138.986 160.806 139.105 161.077 138.981L163.082 138.062C163.353 137.938 163.472 137.618 163.347 137.347C163.223 137.076 162.903 136.957 162.632 137.081Z" fill="#725539"/>
<path d="M163.421 138.802L161.416 139.721C161.146 139.845 161.027 140.166 161.151 140.437C161.275 140.707 161.595 140.826 161.866 140.702L163.871 139.783C164.142 139.659 164.261 139.339 164.136 139.068C164.012 138.797 163.692 138.678 163.421 138.802Z" fill="#725539"/>
<path d="M163.216 122.729L151.791 127.625L152.856 129.943L164.282 125.048L163.216 122.729ZM159.267 114.125L147.84 119.018L148.905 121.337L160.331 116.442L159.267 114.125Z" fill="#F9F5E5"/>
<path d="M120.802 75.8533V81.1823C120.802 87.1744 125.659 92.0319 131.651 92.0319H142.147C148.139 92.0319 152.997 87.1744 152.997 81.1823V75.8533C152.997 69.8612 148.139 65.0036 142.147 65.0036H131.651C125.659 65.0036 120.802 69.8612 120.802 75.8533Z" fill="#E96056"/>
<path d="M134.393 75.3121L134.393 75.3121C132.046 77.0428 128.74 76.5429 127.01 74.1956L121.21 66.3297L129.71 60.0623L135.51 67.9282C137.241 70.2755 136.741 73.5814 134.393 75.3121Z" fill="#F8C69B"/>
<path d="M135.369 67.7379L129.71 60.0623L121.21 66.3297L127.009 74.1956C127.17 74.4132 127.344 74.6148 127.529 74.8003C131.089 73.6317 133.888 71.0149 135.369 67.7379Z" fill="#DBA77F"/>
<path d="M152.997 79.6216H131.524V97.1755H152.997V79.6216Z" fill="#CC992B"/>
<path d="M142.147 65.0036H135.597L136.963 66.8568C138.086 68.3802 138.549 70.2498 138.266 72.1213C137.983 73.9928 136.988 75.6421 135.465 76.7653C134.238 77.6701 132.785 78.1483 131.264 78.1483C129.02 78.1483 126.886 77.0712 125.556 75.2671L122.139 70.6326C121.287 72.1817 120.802 73.9605 120.802 75.8533V81.1823C120.802 87.1744 125.659 92.0319 131.651 92.0319H142.147C148.14 92.0319 152.997 87.1744 152.997 81.1823V75.8533C152.997 69.8612 148.14 65.0036 142.147 65.0036Z" fill="#EDB422"/>
<path d="M152.997 79.2373H120.802V81.0012H152.997V79.2373Z" fill="#F9F5E5"/>
<path d="M152.601 84.084C152.759 83.5132 152.874 82.9245 152.937 82.32H120.861C120.924 82.9245 121.039 83.5132 121.197 84.084H152.601Z" fill="#F9F5E5"/>
<path d="M152.997 97.1755V98.2654C152.997 101.231 151.795 103.915 149.852 105.857C147.91 107.8 145.225 109.002 142.261 109.002C136.33 109.002 131.524 104.196 131.524 98.2654V97.1755H152.997V97.1755Z" fill="#627FB6"/>
<path d="M148.057 95.0233C146.118 95.0233 144.248 93.9626 143.304 92.1176C141.962 89.4949 143 86.2808 145.623 84.9386L149.556 82.9262L140.674 74.8152C138.498 72.8285 138.345 69.4544 140.332 67.2787C142.318 65.103 145.693 64.9502 147.868 66.9367L162.429 80.2329C163.72 81.412 164.351 83.1493 164.119 84.8824C163.886 86.6154 162.818 88.1244 161.262 88.9209L150.483 94.4366C149.705 94.8346 148.875 95.0233 148.057 95.0233Z" fill="#F8C69B"/>
<path d="M162.428 80.2329L147.868 66.9367C146.745 65.9109 145.302 65.4571 143.895 65.5561C144.034 65.6603 144.17 65.7719 144.301 65.8916L158.862 79.1879C160.153 80.367 160.784 82.1042 160.552 83.8373C160.319 85.5704 159.251 87.0794 157.695 87.8759L146.916 93.3915C146.256 93.7294 145.557 93.9149 144.861 93.9637C145.784 94.6508 146.908 95.0232 148.057 95.0232C148.875 95.0232 149.705 94.8346 150.483 94.4366L161.261 88.9209C162.818 88.1244 163.886 86.6154 164.118 84.8823C164.351 83.1493 163.72 81.412 162.428 80.2329Z" fill="#DBA77F"/>
<path d="M150.093 81.9386C148.709 81.9386 147.322 81.4422 146.22 80.4359L140.397 75.1182C138.054 72.9787 137.889 69.345 140.028 67.0021C142.168 64.659 145.802 64.4944 148.145 66.6336L153.968 71.9513C156.311 74.0908 156.476 77.7246 154.337 80.0675C153.203 81.3085 151.65 81.9386 150.093 81.9386Z" fill="#CC4544"/>
<path d="M147.076 96.0637C150.436 96.0637 153.16 93.3398 153.16 89.9797C153.16 86.6196 150.436 83.8957 147.076 83.8957C143.716 83.8957 140.992 86.6196 140.992 89.9797C140.992 93.3398 143.716 96.0637 147.076 96.0637Z" fill="#DDD7C5"/>
<path d="M152.011 86.4242C152.014 86.5021 152.017 86.58 152.017 86.6587C152.017 90.0188 149.294 92.7427 145.933 92.7427C143.901 92.7427 142.103 91.7452 140.998 90.2142C141.121 93.4654 143.795 96.0637 147.076 96.0637C150.436 96.0637 153.16 93.3398 153.16 89.9797C153.16 88.6519 152.733 87.4245 152.011 86.4242Z" fill="#BFB69F"/>
<path d="M142.864 98.6539C146.524 98.6539 149.49 95.6876 149.49 92.0284C149.49 88.3692 146.524 85.4028 142.864 85.4028C139.205 85.4028 136.239 88.3692 136.239 92.0284C136.239 95.6876 139.205 98.6539 142.864 98.6539Z" fill="#F9F5E5"/>
<path d="M147.952 87.7848C148.085 88.3094 148.157 88.8587 148.157 89.4248C148.157 93.084 145.19 96.0504 141.531 96.0504C139.487 96.0504 137.659 95.1239 136.444 93.6684C137.174 96.5343 139.771 98.6539 142.864 98.6539C146.524 98.6539 149.49 95.6876 149.49 92.0284C149.49 90.4136 148.912 88.9344 147.952 87.7848Z" fill="#DDD7C5"/>
<path d="M137.488 95.7625C136.531 95.7625 135.644 95.1448 135.345 94.1822L134.062 90.0395C133.88 89.4554 133.946 88.8225 134.242 88.2875C134.539 87.7526 135.041 87.3618 135.632 87.2056L140.206 85.9974C141.405 85.68 142.633 86.3955 142.949 87.5939C143.266 88.7921 142.551 90.0201 141.353 90.3365L139.041 90.947L139.632 92.8537C139.999 94.0375 139.337 95.2945 138.153 95.6614C137.932 95.73 137.708 95.7625 137.488 95.7625Z" fill="#F9F5E5"/>
<path d="M108.516 149.485C110.614 149.485 112.315 147.784 112.315 145.686C112.315 143.588 110.614 141.887 108.516 141.887C106.417 141.887 104.716 143.588 104.716 145.686C104.716 147.784 106.417 149.485 108.516 149.485Z" fill="#CCC4B0"/>
<path d="M105.113 145.266C106.227 145.266 107.129 144.364 107.129 143.25C107.129 142.137 106.227 141.234 105.113 141.234C104 141.234 103.097 142.137 103.097 143.25C103.097 144.364 104 145.266 105.113 145.266Z" fill="#CCC4B0"/>
<path d="M115.828 148.418C117.812 146.145 118.35 143.369 117.03 142.217C115.71 141.065 113.033 141.974 111.049 144.247C109.065 146.519 108.527 149.296 109.847 150.447C111.167 151.599 113.845 150.691 115.828 148.418Z" fill="#CCC4B0"/>
<path d="M146.978 135.801C143.887 132.879 144.12 128.183 144.363 126.3C144.669 123.936 145.418 121.583 146.142 119.307C146.39 118.529 146.644 117.733 146.881 116.931C146.999 116.534 147.113 116.135 147.221 115.736C148.479 111.076 148.45 107.328 147.131 104.277C146.33 102.423 144.851 100.777 143.074 99.762C142.809 99.61 142.54 99.474 142.27 99.354C140.561 98.595 138.767 98.466 137.136 98.999L137.695 100.71C138.93 100.306 140.216 100.443 141.394 100.936C143.183 101.684 144.726 103.251 145.479 104.991C146.549 107.467 146.625 110.548 145.706 114.386C145.638 114.675 145.563 114.968 145.483 115.266C145.168 116.433 144.792 117.617 144.427 118.761C143.679 121.113 142.905 123.545 142.578 126.069C141.989 130.628 143.142 134.652 145.741 137.109C149.384 140.553 154.975 140.335 159.471 139.739L158.687 138.024C154.692 138.512 149.933 138.595 146.978 135.801Z" fill="#4D4459"/>
<path d="M212.989 142.887C210.289 140.355 206.951 138.287 203.335 136.905C197.213 134.566 189.966 133.833 181.183 134.664C176.808 135.078 172.419 135.824 168.175 136.545C167.99 136.576 167.805 136.608 167.619 136.639L168.393 138.333C168.421 138.328 168.448 138.324 168.476 138.319C172.688 137.604 177.044 136.864 181.352 136.456C189.854 135.651 196.835 136.348 202.693 138.587C208.316 140.736 212.932 144.489 215.676 149.007C216.545 149.248 217.368 149.493 218.143 149.743C216.918 147.251 215.192 144.953 212.989 142.887Z" fill="#4D4459"/>
<path d="M118.38 127.945C117.565 127.945 116.78 127.493 116.393 126.713L112.19 118.239C111.646 117.143 112.094 115.814 113.19 115.27C114.287 114.726 115.616 115.174 116.16 116.27L120.363 124.744C120.907 125.84 120.46 127.17 119.363 127.714C119.047 127.871 118.711 127.945 118.38 127.945Z" fill="#2C2635"/>
<path d="M108.417 148.369L118.299 132.875L116.261 131.575L106.379 147.069L105.566 146.984L104.521 148.621L104.031 151.364L105.513 152.309L107.793 150.708L108.837 149.071L108.417 148.369Z" fill="#736B7C"/>
<path d="M118.299 132.875L117.23 132.193L104.721 151.804L105.513 152.309L107.793 150.708L108.837 149.071L108.417 148.369L118.299 132.875Z" fill="#5E5569"/>
<path d="M116.882 135.33L114.531 133.831C113.545 133.202 113.255 131.892 113.884 130.906L116.523 126.769L122.446 130.547L119.807 134.684C119.178 135.67 117.868 135.96 116.882 135.33Z" fill="#4D4459"/>
<path d="M120.845 129.526L118.041 133.923C117.503 134.766 116.385 135.013 115.542 134.476L116.882 135.33C117.868 135.96 119.178 135.67 119.807 134.684L122.446 130.547L120.845 129.526Z" fill="#2C2635"/>
<path d="M119.681 119.99L115.829 126.028C115.421 126.669 115.609 127.519 116.249 127.928L121.51 131.283C122.151 131.692 123.001 131.504 123.41 130.863L127.261 124.825L119.681 119.99Z" fill="#736B7C"/>
<path d="M125.676 123.814L121.825 129.853C121.416 130.493 120.566 130.681 119.925 130.273L121.51 131.283C122.151 131.692 123.001 131.504 123.41 130.863L127.261 124.825L125.676 123.814Z" fill="#5E5569"/>
<path d="M140.801 100.918L133.791 96.4472C132.654 95.7218 131.143 96.0557 130.418 97.1931L117.283 117.787C116.558 118.924 116.891 120.434 118.029 121.16L125.039 125.631C126.176 126.356 127.686 126.022 128.411 124.885L141.547 104.291C142.272 103.154 141.938 101.644 140.801 100.918Z" fill="#4D4459"/>
<path d="M142.403 90.6759C143.483 91.3648 143.8 92.7989 143.111 93.879L139.252 99.9301L135.34 97.4353L139.2 91.3843C139.888 90.3042 141.323 89.987 142.403 90.6759Z" fill="#EDB422"/>
<path d="M142.111 101.753L140.488 100.718C139.35 99.9928 137.84 100.327 137.115 101.464L123.979 122.058C123.254 123.195 123.588 124.705 124.725 125.431L126.348 126.466C127.486 127.191 128.996 126.858 129.721 125.72L142.857 105.126C143.582 103.989 143.248 102.479 142.111 101.753Z" fill="#2C2635"/>
<path d="M141.398 107.825L138.965 106.274C138.12 105.734 136.997 105.982 136.457 106.828L127.957 120.155C127.418 121.001 127.666 122.123 128.512 122.663L129.159 123.075C130.004 123.615 131.127 123.367 131.667 122.521L134.223 118.512L134.324 118.576L137.259 117.422C137.706 117.247 138.086 116.934 138.344 116.529L142.041 110.732C142.666 109.752 142.379 108.451 141.398 107.825Z" fill="#4D4459"/>
<path d="M142.868 108.763L140.435 107.211C139.589 106.671 138.466 106.92 137.927 107.765L129.427 121.092C128.887 121.938 129.136 123.061 129.981 123.6L130.628 124.013C131.474 124.552 132.597 124.304 133.136 123.458L135.693 119.449L135.793 119.513L138.729 118.36C139.175 118.184 139.555 117.871 139.813 117.467L143.511 111.669C144.136 110.689 143.848 109.388 142.868 108.763Z" fill="#2C2635"/>
<path d="M133.696 102.913L130.511 100.881C130.228 100.701 129.852 100.784 129.672 101.067C129.492 101.349 129.575 101.725 129.858 101.905L133.043 103.937C133.326 104.118 133.701 104.035 133.882 103.752C134.062 103.469 133.979 103.093 133.696 102.913Z" fill="#2C2635"/>
<path d="M132.054 105.487L128.869 103.455C128.586 103.275 128.211 103.358 128.03 103.641C127.85 103.924 127.933 104.299 128.216 104.48L131.401 106.511C131.684 106.692 132.06 106.609 132.24 106.326C132.42 106.043 132.337 105.667 132.054 105.487Z" fill="#2C2635"/>
<path d="M130.412 108.061L127.227 106.03C126.944 105.849 126.569 105.932 126.388 106.215C126.208 106.498 126.291 106.874 126.574 107.054L129.759 109.086C130.042 109.266 130.417 109.183 130.598 108.9C130.778 108.617 130.695 108.242 130.412 108.061Z" fill="#2C2635"/>
<path d="M128.771 110.636L125.585 108.604C125.302 108.423 124.927 108.506 124.746 108.789C124.566 109.072 124.649 109.448 124.932 109.628L128.117 111.66C128.4 111.84 128.776 111.757 128.956 111.474C129.136 111.192 129.053 110.816 128.771 110.636Z" fill="#2C2635"/>
<path d="M104.041 155.07C113.082 154.84 120.387 153.741 120.359 152.615C120.33 151.488 112.978 150.761 103.937 150.99C94.8964 151.219 87.5905 152.318 87.6191 153.445C87.6477 154.571 94.9998 155.299 104.041 155.07Z" fill="#7989A0"/>
<path d="M104.355 154.552C113.398 154.552 120.73 153.639 120.73 152.512C120.73 151.385 113.398 150.471 104.355 150.471C95.3109 150.471 87.9795 151.385 87.9795 152.512C87.9795 153.639 95.3109 154.552 104.355 154.552Z" fill="#F9F5E5"/>
<path d="M94.078 151.707C95.9797 151.707 97.5214 150.165 97.5214 148.263C97.5214 146.361 95.9797 144.82 94.078 144.82C92.1762 144.82 90.6345 146.361 90.6345 148.263C90.6345 150.165 92.1762 151.707 94.078 151.707Z" fill="#CCC4B0"/>
<path d="M96.8505 147.231C98.6874 147.231 100.177 145.742 100.177 143.905C100.177 142.068 98.6874 140.579 96.8505 140.579C95.0135 140.579 93.5244 142.068 93.5244 143.905C93.5244 145.742 95.0135 147.231 96.8505 147.231Z" fill="#CCC4B0"/>
<path d="M98.6693 148.496C100.674 148.496 102.3 146.87 102.3 144.865C102.3 142.86 100.674 141.234 98.6693 141.234C96.6641 141.234 95.0386 142.86 95.0386 144.865C95.0386 146.87 96.6641 148.496 98.6693 148.496Z" fill="#F9F5E5"/>
<path d="M102.978 148.413C104.223 148.413 105.232 147.404 105.232 146.159C105.232 144.914 104.223 143.905 102.978 143.905C101.733 143.905 100.724 144.914 100.724 146.159C100.724 147.404 101.733 148.413 102.978 148.413Z" fill="#F9F5E5"/>
<path d="M117.117 150.94C119.55 148.784 120.739 146.153 119.773 145.062C118.807 143.972 116.052 144.836 113.619 146.991C111.186 149.147 109.997 151.778 110.963 152.869C111.929 153.959 114.684 153.095 117.117 150.94Z" fill="#F9F5E5"/>
<path d="M116.449 150.186C118.725 148.17 120.042 145.886 119.564 144.877C119.64 144.931 119.711 144.992 119.773 145.063C120.739 146.153 119.55 148.784 117.117 150.94C114.684 153.095 111.928 153.959 110.962 152.869C110.9 152.798 110.846 152.721 110.802 152.638C111.745 153.236 114.173 152.203 116.449 150.186Z" fill="#DDD7C5"/>
<path d="M97.5332 154.398C100.166 154.398 102.3 152.264 102.3 149.631C102.3 146.999 100.166 144.865 97.5332 144.865C94.9007 144.865 92.7666 146.999 92.7666 149.631C92.7666 152.264 94.9007 154.398 97.5332 154.398Z" fill="#F9F5E5"/>
<path d="M104.336 153.73C108.093 153.73 111.138 152.14 111.138 150.178C111.138 148.215 108.093 146.625 104.336 146.625C100.579 146.625 97.5334 148.215 97.5334 150.178C97.5334 152.14 100.579 153.73 104.336 153.73Z" fill="#F9F5E5"/>
<path d="M98.3357 146.662C98.2384 146.934 98.185 147.228 98.185 147.534C98.185 148.967 99.3468 150.129 100.78 150.129C101.401 150.129 101.97 149.91 102.417 149.547C102.059 150.551 101.1 151.27 99.9726 151.27C98.5395 151.27 97.3777 150.108 97.3777 148.675C97.3777 147.862 97.7512 147.137 98.3357 146.662Z" fill="#DDD7C5"/>
<path d="M105.072 150.982C105.243 151.119 105.441 151.223 105.66 151.285C106.684 151.575 107.791 150.837 108.13 149.636C108.278 149.116 108.257 148.595 108.102 148.147C108.736 148.65 109.022 149.599 108.755 150.543C108.415 151.744 107.309 152.482 106.284 152.192C105.703 152.028 105.273 151.568 105.072 150.982Z" fill="#DDD7C5"/>
<path d="M95.6257 130.458L101.269 132.241L97.6322 118.842L105.528 136.678L102.249 135.642L107.595 144.389L95.6257 130.458Z" fill="white"/>
<path d="M99.5579 145.229C100.049 145.229 100.447 144.831 100.447 144.34C100.447 143.849 100.049 143.451 99.5579 143.451C99.0669 143.451 98.6689 143.849 98.6689 144.34C98.6689 144.831 99.0669 145.229 99.5579 145.229Z" fill="white"/>
<path d="M103.205 147.937C103.602 147.937 103.924 147.615 103.924 147.218C103.924 146.821 103.602 146.499 103.205 146.499C102.808 146.499 102.486 146.821 102.486 147.218C102.486 147.615 102.808 147.937 103.205 147.937Z" fill="white"/>
<path d="M109.229 147.953L118.663 136.74L118.07 141.366L129.052 132.978L116.166 144.668L116.672 140.721L109.229 147.953Z" fill="#F9F5E5"/>
<path d="M133.534 125.161C133.488 125.161 133.441 125.148 133.399 125.12C133.286 125.045 133.254 124.893 133.329 124.779L133.949 123.839C134.024 123.725 134.177 123.694 134.29 123.769C134.403 123.843 134.435 123.996 134.36 124.11L133.74 125.05C133.693 125.122 133.614 125.161 133.534 125.161Z" fill="#F9F5E5"/>
<path d="M135.022 122.904C134.976 122.904 134.929 122.891 134.887 122.863C134.773 122.788 134.742 122.635 134.817 122.522L136.286 120.293C136.317 120.245 136.364 120.21 136.418 120.193L138.071 119.674C138.201 119.633 138.339 119.705 138.38 119.835C138.421 119.964 138.349 120.103 138.219 120.143L136.649 120.637L135.228 122.793C135.181 122.865 135.102 122.904 135.022 122.904Z" fill="#F9F5E5"/>
<path d="M139.253 119.807C139.148 119.807 139.051 119.739 139.018 119.634C138.977 119.504 139.049 119.366 139.179 119.326L140.329 118.964L141.109 117.587C141.176 117.468 141.326 117.427 141.445 117.494C141.563 117.561 141.605 117.711 141.538 117.829L140.71 119.291C140.679 119.345 140.629 119.386 140.569 119.405L139.326 119.795C139.302 119.803 139.277 119.807 139.253 119.807Z" fill="#F9F5E5"/>
<path d="M142.058 116.657C142.017 116.657 141.975 116.646 141.937 116.625C141.819 116.558 141.777 116.407 141.844 116.289L142.403 115.301C142.47 115.183 142.621 115.141 142.739 115.208C142.857 115.275 142.899 115.425 142.832 115.544L142.272 116.532C142.227 116.612 142.144 116.657 142.058 116.657Z" fill="#F9F5E5"/>
<path d="M143.352 114.371C143.311 114.371 143.269 114.361 143.231 114.339C143.113 114.272 143.071 114.122 143.138 114.003L143.627 113.139C143.694 113.021 143.845 112.98 143.963 113.046C144.081 113.113 144.123 113.264 144.056 113.382L143.567 114.246C143.521 114.326 143.438 114.371 143.352 114.371Z" fill="#F9F5E5"/>
<path d="M108.855 141.022C108.808 141.022 108.762 141.009 108.72 140.982C108.606 140.907 108.575 140.754 108.649 140.641L109.074 139.996C109.149 139.882 109.301 139.851 109.415 139.925C109.529 140 109.56 140.153 109.485 140.266L109.061 140.911C109.014 140.983 108.935 141.022 108.855 141.022Z" fill="#F9F5E5"/>
<path d="M109.642 139.827C109.595 139.827 109.548 139.814 109.506 139.786C109.393 139.711 109.361 139.559 109.436 139.445L110.184 138.308C110.259 138.195 110.412 138.163 110.525 138.238C110.639 138.313 110.67 138.465 110.596 138.579L109.847 139.716C109.8 139.788 109.722 139.827 109.642 139.827Z" fill="#F9F5E5"/>
<path d="M110.802 138.064C110.755 138.064 110.708 138.051 110.667 138.023C110.553 137.949 110.521 137.796 110.596 137.683L110.933 137.172C111.007 137.058 111.16 137.027 111.274 137.101C111.387 137.176 111.419 137.329 111.344 137.442L111.008 137.953C110.96 138.025 110.882 138.064 110.802 138.064Z" fill="#F9F5E5"/>
<path d="M111.694 136.708C111.647 136.708 111.6 136.695 111.559 136.668C111.445 136.593 111.414 136.44 111.488 136.327L111.773 135.895C111.847 135.781 112 135.75 112.114 135.824C112.227 135.899 112.259 136.052 112.184 136.165L111.9 136.597C111.852 136.669 111.774 136.708 111.694 136.708Z" fill="#F9F5E5"/>
<path d="M112.725 135.141C112.679 135.141 112.632 135.128 112.59 135.1C112.477 135.026 112.445 134.873 112.52 134.759L112.715 134.464C112.789 134.35 112.942 134.319 113.056 134.393C113.169 134.468 113.201 134.621 113.126 134.734L112.931 135.03C112.884 135.102 112.805 135.141 112.725 135.141Z" fill="#F9F5E5"/>
<path d="M134.463 95.5982C134.422 95.5982 134.381 95.5883 134.343 95.5671L133.857 95.2969C133.739 95.2308 133.696 95.0808 133.762 94.962C133.828 94.8431 133.978 94.8003 134.097 94.8666L134.583 95.1369C134.701 95.2029 134.744 95.353 134.678 95.4718C134.633 95.5527 134.549 95.5982 134.463 95.5982Z" fill="#F9F5E5"/>
<path d="M129.651 96.0099C129.601 96.0099 129.552 95.9953 129.509 95.9647C129.398 95.8863 129.371 95.7326 129.45 95.6215L129.895 94.992C130.607 93.9839 131.957 93.6763 133.036 94.2766L133.374 94.4643C133.492 94.5303 133.535 94.6802 133.469 94.7992C133.403 94.9179 133.253 94.9609 133.134 94.8945L132.797 94.7068C131.938 94.2291 130.864 94.4739 130.297 95.2762L129.852 95.9058C129.804 95.9736 129.728 96.0099 129.651 96.0099Z" fill="#F9F5E5"/>
<path d="M128.238 98.0086C128.189 98.0086 128.14 97.994 128.097 97.9634C127.986 97.885 127.959 97.7313 128.038 97.6203L128.941 96.3422C129.019 96.231 129.173 96.2043 129.284 96.2832C129.395 96.3616 129.421 96.5153 129.343 96.6262L128.44 97.9044C128.392 97.9723 128.316 98.0086 128.238 98.0086Z" fill="#F9F5E5"/>
<path d="M127.096 99.6254C127.047 99.6254 126.997 99.6108 126.954 99.5802C126.843 99.5018 126.817 99.3481 126.895 99.2372L127.215 98.7847C127.293 98.6735 127.447 98.6469 127.558 98.7257C127.669 98.8041 127.695 98.9578 127.617 99.0687L127.297 99.5212C127.249 99.5892 127.173 99.6254 127.096 99.6254Z" fill="#F9F5E5"/>
<path d="M126.102 101.032C126.053 101.032 126.003 101.017 125.96 100.987C125.849 100.908 125.823 100.755 125.901 100.644L126.558 99.7142C126.636 99.603 126.79 99.5764 126.901 99.6553C127.012 99.7336 127.039 99.8874 126.96 99.9983L126.303 100.928C126.255 100.996 126.179 101.032 126.102 101.032Z" fill="#F9F5E5"/>
<path d="M124.835 102.825C124.786 102.825 124.736 102.81 124.693 102.78C124.582 102.701 124.556 102.548 124.634 102.437L125.425 101.318C125.503 101.207 125.657 101.18 125.768 101.259C125.879 101.337 125.905 101.491 125.827 101.602L125.036 102.721C124.988 102.789 124.912 102.825 124.835 102.825Z" fill="#F9F5E5"/>
<path d="M115.684 56.0965L110.687 57.3281L109.694 53.2971C109.353 51.9172 110.196 50.5228 111.576 50.1827V50.1827C112.956 49.8426 114.351 50.6855 114.691 52.0655L115.684 56.0965Z" fill="#4D4459"/>
<path d="M113.456 55.5148L109.725 56.4344C108.492 56.7383 107.739 57.9839 108.043 59.2166L109.879 66.6662C110.183 67.8989 111.428 68.6519 112.661 68.3481L116.392 67.4285C117.625 67.1247 118.378 65.8791 118.074 64.6464L116.238 57.1968C115.934 55.964 114.689 55.211 113.456 55.5148Z" fill="#4D4459"/>
<path d="M115.521 55.0058L111.79 55.9254C110.557 56.2292 109.804 57.4748 110.108 58.7075L111.944 66.1572C112.248 67.3899 113.494 68.1429 114.726 67.8391L118.457 66.9195C119.69 66.6157 120.443 65.37 120.139 64.1373L118.303 56.6877C118 55.455 116.754 54.7019 115.521 55.0058Z" fill="#EDB422"/>
<path d="M112.613 54.3915C113.134 54.263 113.453 53.7363 113.324 53.215C113.196 52.6937 112.669 52.3752 112.148 52.5037C111.626 52.6322 111.308 53.1589 111.436 53.6802C111.565 54.2015 112.091 54.52 112.613 54.3915Z" fill="#766C7F"/>
<path d="M117.199 59.568L113.713 60.4274C113.394 60.506 113.071 60.3112 112.993 59.9923V59.9923C112.914 59.6734 113.109 59.3511 113.428 59.2725L116.915 58.4132C117.234 58.3346 117.556 58.5294 117.635 58.8483C117.713 59.1672 117.518 59.4894 117.199 59.568Z" fill="#CA962B"/>
<path d="M118.108 63.2548L114.621 64.1142C114.302 64.1928 113.98 63.998 113.901 63.6791C113.823 63.3602 114.018 63.0379 114.337 62.9593L117.823 62.0999C118.142 62.0213 118.465 62.2161 118.543 62.535C118.622 62.854 118.427 63.1762 118.108 63.2548Z" fill="#CA962B"/>
<path d="M133.347 68.4519L129.27 69.3203L125.062 49.5629L139.109 46.5711L141.194 56.358C142.366 61.8645 138.853 67.2791 133.347 68.4519Z" fill="#754F2E"/>
<path d="M126.685 73.2943C125.984 73.4159 125.281 73.5236 124.575 73.6175C117.499 74.5589 110.974 69.6473 109.893 62.5909L108.821 55.5928C107.658 47.9991 112.871 40.9001 120.465 39.7368L120.465 39.7368C128.058 38.5735 135.157 43.7864 136.321 51.3802L137.393 58.3783C138.474 65.4347 133.719 72.0742 126.685 73.2943Z" fill="#F8C69B"/>
<path d="M125.258 73.5129C118.506 74.4046 112.242 69.4532 111.161 62.3968L110.089 55.3987C108.942 47.9134 113.715 40.9515 120.789 39.6913C120.681 39.7053 120.573 39.7202 120.465 39.7368L120.465 39.7368C112.871 40.9001 107.658 47.9991 108.821 55.5928L109.893 62.591C110.974 69.6473 117.499 74.559 124.575 73.6175C125.036 73.5561 125.496 73.4866 125.956 73.4134C125.723 73.4475 125.491 73.4822 125.258 73.5129Z" fill="#FEE2CC"/>
<path d="M132.501 59.2614C136.091 59.2614 139.001 56.3513 139.001 52.7616C139.001 49.1718 136.091 46.2617 132.501 46.2617C128.911 46.2617 126.001 49.1718 126.001 52.7616C126.001 56.3513 128.911 59.2614 132.501 59.2614Z" fill="#754F2E"/>
<path d="M122.026 57.5086C131.088 53.9572 137.628 49.0217 136.634 46.4847C135.639 43.9478 127.487 44.7702 118.426 48.3216C109.364 51.873 102.824 56.8086 103.818 59.3455C104.813 61.8824 112.965 61.06 122.026 57.5086Z" fill="#FFD13F"/>
<path d="M105.439 59.1919C104.445 56.655 110.985 51.7195 120.047 48.1681C124.27 46.5128 128.296 45.4507 131.491 45.045C128.099 45.2457 123.4 46.3726 118.426 48.3218C109.364 51.8732 102.824 56.8088 103.818 59.3457C104.349 60.7002 106.921 61.0968 110.582 60.6319C107.793 60.797 105.888 60.3364 105.439 59.1919Z" fill="#FEE292"/>
<path d="M120.239 33.2842L120.239 33.2842C110.837 34.7245 104.382 43.5143 105.823 52.9166V52.9166C106.158 55.1044 108.203 56.6062 110.391 56.2711L137.971 52.0461C139.356 51.8339 140.307 50.5393 140.095 49.1545L139.872 47.7007C138.431 38.2983 129.642 31.8439 120.239 33.2842Z" fill="#EDB422"/>
<path d="M106.91 52.8779L106.809 52.2196C105.428 43.2015 111.545 34.7664 120.507 33.2473C120.418 33.2596 120.329 33.2712 120.239 33.2849L120.239 33.2849C110.837 34.7252 104.383 43.5149 105.823 52.9172V52.9173C106.158 55.105 108.203 56.6069 110.391 56.2717L111.335 56.1271C109.216 56.4518 107.234 54.997 106.91 52.8779Z" fill="#F8C045"/>
<path d="M116.27 55.3704L137.971 52.0461L137.971 52.0461L116.27 55.3704Z" fill="#F8C045"/>
<path d="M140.095 49.1545L139.872 47.7007C138.432 38.2983 129.642 31.8439 120.239 33.2842L120.239 33.2842C119.999 33.321 119.761 33.3639 119.524 33.4103C127.881 32.5016 135.548 38.3314 136.833 46.7219L137.304 49.7947C137.499 51.0648 136.627 52.2521 135.357 52.4466L114.221 55.6843L137.971 52.0461C139.356 51.834 140.307 50.5393 140.095 49.1545Z" fill="#CC992B"/>
<path d="M137.249 54.1021L132.219 55.1937L131.339 51.1365C131.037 49.7476 131.919 48.3773 133.308 48.0759V48.0759C134.697 47.7745 136.067 48.656 136.368 50.0449L137.249 54.1021Z" fill="#4D4459"/>
<path d="M135.038 53.4585L131.282 54.2735C130.042 54.5428 129.254 55.7669 129.523 57.0077L131.151 64.5056C131.42 65.7464 132.644 66.5339 133.885 66.2646L137.64 65.4495C138.881 65.1802 139.669 63.9561 139.399 62.7154L137.772 55.2174C137.503 53.9767 136.279 53.1892 135.038 53.4585Z" fill="#4D4459"/>
<path d="M137.117 53.0073L133.362 53.8223C132.121 54.0916 131.333 55.3157 131.603 56.5564L133.23 64.0544C133.499 65.2951 134.723 66.0826 135.964 65.8134L139.719 64.9983C140.96 64.729 141.748 63.5049 141.478 62.2642L139.851 54.7662C139.582 53.5255 138.358 52.738 137.117 53.0073Z" fill="#EDB422"/>
<path d="M134.228 52.3118C134.752 52.1979 135.085 51.6803 134.971 51.1556C134.858 50.6309 134.34 50.2979 133.815 50.4117C133.291 50.5256 132.958 51.0433 133.071 51.568C133.185 52.0927 133.703 52.4257 134.228 52.3118Z" fill="#766C7F"/>
<path d="M138.667 57.6146L135.157 58.3764C134.836 58.446 134.52 58.2423 134.45 57.9213C134.38 57.6003 134.584 57.2836 134.905 57.2139L138.415 56.4522C138.736 56.3826 139.052 56.5863 139.122 56.9073C139.192 57.2283 138.988 57.545 138.667 57.6146Z" fill="#CA962B"/>
<path d="M139.472 61.3253L135.962 62.087C135.641 62.1567 135.325 61.953 135.255 61.632C135.185 61.311 135.389 60.9943 135.71 60.9246L139.22 60.1629C139.541 60.0933 139.857 60.297 139.927 60.618V60.618C139.997 60.939 139.793 61.2557 139.472 61.3253Z" fill="#CA962B"/>
<path d="M119.062 52.9425L118.171 38.9369C118.06 37.1954 116.558 35.8734 114.817 35.9843L113.343 36.0781C113.26 36.0834 113.179 36.0947 113.098 36.1061C112.173 36.7425 111.316 37.4655 110.538 38.2615C110.42 38.6289 110.364 39.0233 110.39 39.4321L111.281 53.4377C111.348 54.4902 111.925 55.3867 112.754 55.9091L118.434 55.039C118.871 54.4577 119.112 53.725 119.062 52.9425Z" fill="#CC992B"/>
<path d="M114.632 56.1323L113.158 56.2261C111.417 56.337 109.915 55.015 109.804 53.2735L108.913 39.2679C108.802 37.5264 110.124 36.0248 111.865 35.9139L113.34 35.8201C115.081 35.7093 116.583 37.0312 116.694 38.7727L117.585 52.7783C117.696 54.5199 116.374 56.0215 114.632 56.1323Z" fill="#F8C045"/>
<path d="M113.288 53.0505C114.646 52.9641 115.657 51.4848 115.546 49.7465C115.436 48.0081 114.245 46.6689 112.887 46.7553C111.529 46.8418 110.518 48.3211 110.628 50.0594C110.739 51.7978 111.93 53.137 113.288 53.0505Z" fill="#EDB422"/>
<path d="M119.065 67.3953C119.778 69.7747 121.845 71.2814 123.773 70.7795C125.701 70.2776 126.771 67.9541 126.233 65.5292L119.065 67.3953Z" fill="white"/>
</g>
</g>
<defs>
<clipPath id="clip0">
<rect width="280" height="180" rx="10" fill="white"/>
</clipPath>
</defs>
</svg>
