<svg width="299" height="337" viewBox="0 0 299 337" fill="none" xmlns="http://www.w3.org/2000/svg">
<path d="M37.6719 60.3912C95.2834 -20.827 196.758 -7.69427 242.5 32C288.242 71.6942 311.415 220.325 270.722 259.378C230.029 298.431 86.5288 333.43 37.672 285.669C-11.1849 237.908 -13.9109 133.11 37.6719 60.3912Z" fill="url(#paint0_linear)"/>
<g clip-path="url(#clip0)">
<path d="M215.69 256.369L225.211 286.882C225.211 286.882 144.657 239.69 131.799 222.915C118.94 206.139 121.726 155.055 121.726 155.055L159.942 165.34L215.69 256.369Z" fill="#DFAE9C"/>
<path d="M77.6567 151.752L65.9002 156.203C65.9002 156.203 63.0532 171.313 82.8432 167.023L77.6567 151.752Z" fill="#DFAE9C"/>
<path d="M82.9944 172.352L71.2379 176.803C71.2379 176.803 68.3908 191.913 88.1809 187.623L82.9944 172.352Z" fill="#DFAE9C"/>
<path d="M88.7649 194.622L77.0084 199.073C77.0084 199.073 74.1613 214.184 93.9514 209.894L88.7649 194.622Z" fill="#DFAE9C"/>
<path d="M97.9768 215.939L86.2203 220.39C86.2203 220.39 83.3733 235.5 103.163 231.21L97.9768 215.939Z" fill="#DFAE9C"/>
<path d="M73.1836 158.745L74.0976 158.491L67.8003 134.188C67.3217 132.341 67.2226 130.408 67.5086 128.499C67.7947 126.591 68.4603 124.745 69.4674 123.066C70.4746 121.387 71.8036 119.908 73.3785 118.714C74.9535 117.52 76.7436 116.634 78.6465 116.107L131.691 101.408C133.594 100.881 135.573 100.723 137.514 100.943C139.456 101.162 141.322 101.756 143.006 102.689C144.69 103.622 146.159 104.877 147.329 106.382C148.5 107.887 149.348 109.612 149.827 111.459L184.374 244.789C184.853 246.636 184.952 248.569 184.666 250.478C184.38 252.386 183.714 254.232 182.707 255.911C181.7 257.59 180.371 259.069 178.796 260.263C177.221 261.457 175.431 262.343 173.528 262.871L120.483 277.569C116.64 278.634 112.57 278.173 109.169 276.288C105.768 274.403 103.314 271.248 102.347 267.518L78.5801 175.791L77.6661 176.044L73.1836 158.745Z" fill="#3F3D56"/>
<path d="M79.0101 119.928L85.9342 118.01C85.8122 118.856 85.9037 119.711 86.2006 120.502C86.4976 121.292 86.991 121.992 87.6373 122.541C88.2835 123.09 89.0629 123.471 89.9067 123.65C90.7505 123.828 91.6328 123.8 92.4759 123.566L122.865 115.146C123.708 114.912 124.486 114.481 125.13 113.89C125.774 113.298 126.265 112.566 126.56 111.756C126.854 110.947 126.943 110.085 126.818 109.247C126.693 108.409 126.358 107.621 125.843 106.951L132.31 105.159C135.181 104.364 138.22 104.708 140.76 106.116C143.3 107.523 145.132 109.879 145.854 112.665L180.35 245.799C180.708 247.179 180.782 248.622 180.568 250.047C180.355 251.473 179.858 252.851 179.105 254.105C178.353 255.359 177.361 256.463 176.185 257.355C175.008 258.247 173.672 258.908 172.251 259.302L118.95 274.071C117.529 274.465 116.051 274.583 114.602 274.419C113.152 274.255 111.759 273.812 110.501 273.115C109.243 272.418 108.146 271.481 107.272 270.357C106.398 269.233 105.764 267.945 105.407 266.565V266.565L70.9103 133.431C70.5528 132.052 70.4788 130.608 70.6924 129.183C70.9061 127.758 71.4031 126.379 72.1553 125.125C72.9074 123.871 73.8999 122.767 75.0761 121.875C76.2522 120.984 77.589 120.322 79.0101 119.928Z" fill="white"/>
<path d="M126.744 146.677L103.905 153.005L105.291 158.355L128.13 152.027L126.744 146.677Z" fill="#00B389"/>
<path d="M133.788 169.363L108.774 176.294L110.16 181.644L135.174 174.713L133.788 169.363Z" fill="#E5E5E5"/>
<path d="M152.172 176.586L96.3442 192.055L97.7304 197.405L153.558 181.935L152.172 176.586Z" fill="#E5E5E5"/>
<path d="M155.15 188.078L99.322 203.547L100.708 208.897L156.536 193.427L155.15 188.078Z" fill="#E5E5E5"/>
<path d="M270 259L211.804 215.13L197.681 170.112L163.492 137.814L152.281 123.018C152.281 123.018 136.654 129.138 158.069 157.218L167.918 172.69C165.667 184.32 166.021 196.21 168.954 207.532L179.037 246.445C181.411 255.607 217.528 280.206 224.739 286.379L254.61 269.677L270 259Z" fill="#DFAE9C"/>
<path opacity="0.2" d="M159.353 142.5L163.55 138.888L163.304 138.611L159.426 141.948L148.341 126.8L148.029 127.024L159.353 142.5Z" fill="black"/>
<path opacity="0.2" d="M65.9205 156.016L65.8799 156.388L73.6317 156.959L73.6723 156.587L65.9205 156.016Z" fill="black"/>
<path opacity="0.2" d="M71.3191 176.851L71.2786 177.223L79.0304 177.794L79.071 177.422L71.3191 176.851Z" fill="black"/>
<path opacity="0.2" d="M77.0899 199.122L77.0493 199.495L84.8012 200.066L84.8418 199.693L77.0899 199.122Z" fill="black"/>
<path opacity="0.2" d="M86.5791 220.371L86.5029 220.739L90.3739 221.391L90.4501 221.023L86.5791 220.371Z" fill="black"/>
<path d="M140.613 247.322C149.449 244.874 154.81 235.937 152.587 227.36C150.365 218.784 141.401 213.816 132.566 216.264C123.73 218.712 118.369 227.649 120.591 236.226C122.813 244.802 131.778 249.77 140.613 247.322Z" fill="#00B389"/>
<path d="M136.763 238.771L130.427 234.121L132.666 231.247L135.667 233.449L141.292 223.478L144.464 225.124L136.763 238.771Z" fill="white"/>
<ellipse rx="3.76743" ry="4.4726" transform="matrix(0.99553 0.00863915 0.0079167 1.00393 185.356 107.44)" fill="#FFC015"/>
</g>
<ellipse cx="86.5476" cy="32.4999" rx="3.38454" ry="2.5" fill="#00B389"/>
<ellipse cx="43.0322" cy="144" rx="3.38454" ry="3" fill="#E50000"/>
<ellipse cx="56.0868" cy="80" rx="3.86805" ry="5" fill="#C4C4C4"/>
<ellipse cx="186.633" cy="20.4999" rx="4.83506" ry="3.5" fill="#C4C4C4"/>
<path d="M126.195 71L127.172 74.1094H130.334L127.776 76.0312L128.753 79.1406L126.195 77.2188L123.638 79.1406L124.615 76.0312L122.057 74.1094H125.218L126.195 71Z" fill="#E50000" fill-opacity="0.2"/>
<defs>
<linearGradient id="paint0_linear" x1="179.381" y1="46.282" x2="-85.3301" y2="233.661" gradientUnits="userSpaceOnUse">
<stop stop-color="#B4D0FC"/>
<stop offset="1" stop-color="#AAC4EB" stop-opacity="0.13"/>
</linearGradient>
<clipPath id="clip0">
<rect width="194.106" height="221.517" fill="white" transform="matrix(0.963689 -0.267028 0.250827 0.968032 56.0869 122.358)"/>
</clipPath>
</defs>
</svg>
